<svg width="678" height="928" viewBox="0 0 678 928" fill="none" xmlns="http://www.w3.org/2000/svg">
<g clip-path="url(#clip0_277_7873)">
<rect width="678" height="928" rx="40" fill="black"/>
<rect x="82.166" y="78.8071" width="338.655" height="120.948" rx="20" transform="rotate(-10 82.166 78.8071)" fill="#EBE7E3"/>
<path d="M183.366 118.308L178.33 119.196L180.973 101.006L187.352 99.8817L196.057 116.071L191.021 116.959L185.064 105.166L184.93 105.19L183.366 118.308ZM181.23 111.692L190.698 110.023L191.314 113.515L181.846 115.184L181.23 111.692ZM204.225 102.445C204.082 101.894 203.795 101.494 203.365 101.247C202.94 100.999 202.35 100.941 201.595 101.074C201.114 101.159 200.73 101.287 200.443 101.459C200.16 101.624 199.964 101.818 199.853 102.039C199.742 102.261 199.706 102.498 199.744 102.751C199.77 102.96 199.839 103.141 199.953 103.294C200.071 103.44 200.237 103.564 200.451 103.665C200.664 103.76 200.928 103.834 201.243 103.888C201.558 103.942 201.928 103.975 202.351 103.987L203.814 104.041C204.801 104.074 205.662 104.197 206.397 104.407C207.133 104.618 207.755 104.909 208.265 105.281C208.774 105.647 209.178 106.089 209.477 106.608C209.781 107.125 209.994 107.711 210.115 108.365C210.309 109.496 210.195 110.502 209.774 111.385C209.352 112.267 208.657 113.004 207.689 113.596C206.725 114.187 205.516 114.61 204.062 114.867C202.568 115.13 201.225 115.139 200.033 114.893C198.848 114.647 197.866 114.119 197.089 113.31C196.316 112.494 195.8 111.368 195.541 109.931L199.973 109.149C200.093 109.67 200.303 110.089 200.601 110.406C200.899 110.722 201.277 110.936 201.735 111.045C202.198 111.154 202.726 111.156 203.32 111.051C203.818 110.964 204.224 110.828 204.538 110.646C204.852 110.464 205.076 110.248 205.211 110C205.346 109.751 205.392 109.486 205.348 109.205C205.296 108.943 205.169 108.729 204.966 108.563C204.769 108.39 204.469 108.258 204.066 108.168C203.662 108.072 203.129 108.01 202.467 107.982L200.69 107.915C199.109 107.853 197.812 107.514 196.797 106.896C195.787 106.273 195.167 105.289 194.935 103.945C194.737 102.855 194.86 101.849 195.304 100.929C195.752 100.002 196.459 99.2164 197.424 98.573C198.395 97.9287 199.56 97.4867 200.92 97.2469C202.308 97.0023 203.549 97.0228 204.644 97.3087C205.738 97.5945 206.634 98.1116 207.332 98.8598C208.034 99.6014 208.487 100.534 208.69 101.658L204.225 102.445ZM219.967 99.6695C219.823 99.1178 219.537 98.7184 219.106 98.4712C218.682 98.2229 218.092 98.1654 217.337 98.2986C216.855 98.3835 216.471 98.5118 216.184 98.6835C215.902 98.8487 215.705 99.0421 215.594 99.2636C215.483 99.4851 215.447 99.7222 215.486 99.975C215.511 100.184 215.581 100.365 215.694 100.518C215.812 100.665 215.978 100.788 216.192 100.889C216.405 100.984 216.669 101.059 216.985 101.113C217.3 101.167 217.669 101.2 218.092 101.212L219.556 101.265C220.543 101.299 221.404 101.421 222.139 101.632C222.874 101.843 223.497 102.134 224.006 102.505C224.515 102.872 224.919 103.314 225.218 103.832C225.523 104.35 225.736 104.935 225.857 105.589C226.051 106.72 225.937 107.727 225.515 108.609C225.094 109.491 224.399 110.228 223.43 110.82C222.467 111.411 221.258 111.835 219.803 112.091C218.309 112.355 216.966 112.363 215.775 112.118C214.589 111.871 213.608 111.343 212.83 110.534C212.058 109.718 211.542 108.592 211.282 107.155L215.714 106.373C215.835 106.895 216.044 107.313 216.342 107.63C216.641 107.947 217.019 108.16 217.476 108.27C217.94 108.378 218.468 108.38 219.061 108.276C219.559 108.188 219.965 108.053 220.279 107.871C220.593 107.688 220.818 107.473 220.953 107.224C221.088 106.975 221.133 106.71 221.09 106.43C221.038 106.168 220.91 105.953 220.708 105.787C220.51 105.614 220.21 105.483 219.808 105.392C219.404 105.296 218.871 105.234 218.208 105.207L216.431 105.139C214.851 105.078 213.553 104.738 212.539 104.121C211.529 103.497 210.908 102.513 210.677 101.169C210.479 100.079 210.602 99.0736 211.045 98.1531C211.493 97.2259 212.2 96.4407 213.166 95.7974C214.137 95.1531 215.302 94.711 216.662 94.4713C218.049 94.2266 219.291 94.2472 220.385 94.533C221.48 94.8189 222.376 95.3359 223.073 96.0841C223.775 96.8258 224.228 97.7585 224.432 98.8822L219.967 99.6695ZM230.162 92.3332L233.193 109.523L228.526 110.345L225.495 93.156L230.162 92.3332ZM244.537 95.6487C244.412 95.365 244.251 95.125 244.055 94.9288C243.858 94.727 243.628 94.5685 243.365 94.4533C243.107 94.3315 242.818 94.2585 242.496 94.2344C242.179 94.2038 241.839 94.2205 241.475 94.2847C240.692 94.4228 240.056 94.7281 239.568 95.2007C239.086 95.6723 238.761 96.2863 238.595 97.0426C238.434 97.798 238.441 98.6736 238.617 99.6696C238.794 100.677 239.083 101.514 239.484 102.182C239.884 102.85 240.389 103.326 240.999 103.611C241.609 103.896 242.317 103.967 243.123 103.825C243.833 103.7 244.405 103.492 244.839 103.202C245.278 102.912 245.581 102.555 245.749 102.133C245.917 101.711 245.956 101.243 245.865 100.728L246.686 100.67L242.758 101.363L242.172 98.0389L249.793 96.6951L250.213 99.0788C250.489 100.646 250.393 102.044 249.923 103.275C249.458 104.5 248.696 105.511 247.637 106.309C246.582 107.101 245.305 107.629 243.805 107.894C242.132 108.189 240.601 108.092 239.211 107.605C237.821 107.117 236.655 106.278 235.712 105.089C234.775 103.898 234.147 102.396 233.828 100.583C233.577 99.1621 233.57 97.8651 233.808 96.6924C234.051 95.5187 234.492 94.4861 235.131 93.5946C235.769 92.6974 236.56 91.9665 237.505 91.4018C238.449 90.8316 239.5 90.4443 240.658 90.2401C241.676 90.0605 242.648 90.0393 243.572 90.1763C244.501 90.3068 245.348 90.5786 246.113 90.9918C246.883 91.3984 247.538 91.9261 248.08 92.5749C248.621 93.2237 249.012 93.9711 249.254 94.817L244.537 95.6487ZM265.504 86.1015L268.534 103.291L264.64 103.978L256.837 96.0416L256.736 96.0593L258.328 105.09L253.662 105.913L250.631 88.7239L254.592 88.0254L262.289 95.9456L262.423 95.9219L260.837 86.9243L265.504 86.1015ZM267.711 85.7122L273.519 84.6881L279.231 93.7198L279.432 93.6843L281.711 83.2437L287.519 82.2195L290.55 99.4089L285.984 100.214L284.232 90.2764L284.097 90.3001L281.999 100.778L279.246 101.264L273.678 92.0681L273.544 92.0918L275.308 102.097L270.742 102.902L267.711 85.7122ZM292.762 99.0189L289.731 81.8296L302.119 79.6451L302.782 83.4053L295.06 84.7669L295.581 87.7213L302.665 86.4722L303.328 90.2324L296.244 91.4815L296.765 94.4359L304.453 93.0803L305.116 96.8404L292.762 99.0189ZM319.306 76.6146L322.337 93.8039L318.443 94.4906L310.639 86.5547L310.539 86.5724L312.131 95.6036L307.464 96.4264L304.434 79.237L308.395 78.5385L316.092 86.4587L316.226 86.435L314.64 77.4374L319.306 76.6146ZM321.707 80.0684L321.044 76.3082L335.984 73.6739L336.647 77.4341L331.477 78.3457L333.844 91.7749L329.245 92.5859L326.877 79.1567L321.707 80.0684ZM215.236 139.09L207.135 122.794L212.339 121.877L216.554 132.038L216.688 132.014L217.61 120.947L221.706 120.225L226.363 130.343L226.497 130.319L226.977 119.296L232.181 118.378L230.142 136.462L225.677 137.249L221.063 128.162L220.929 128.186L219.701 138.303L215.236 139.09ZM236.722 135.301L233.691 118.112L241.111 116.804C242.387 116.579 243.544 116.614 244.583 116.91C245.621 117.205 246.484 117.743 247.169 118.522C247.855 119.301 248.305 120.301 248.52 121.521C248.737 122.752 248.646 123.838 248.246 124.779C247.853 125.72 247.201 126.493 246.293 127.097C245.389 127.701 244.283 128.118 242.974 128.349L238.542 129.13L237.903 125.504L241.394 124.889C241.943 124.792 242.398 124.642 242.76 124.44C243.127 124.231 243.388 123.957 243.542 123.619C243.701 123.279 243.738 122.866 243.652 122.379C243.565 121.887 243.388 121.505 243.121 121.235C242.859 120.958 242.519 120.781 242.102 120.705C241.689 120.622 241.209 120.629 240.66 120.726L239.015 121.016L241.389 134.478L236.722 135.301ZM245.403 125.636L251.092 132.768L246.022 133.661L240.434 126.512L245.403 125.636ZM254.146 114.505L257.177 131.695L252.51 132.517L249.479 115.328L254.146 114.505ZM256.55 117.958L255.887 114.198L270.827 111.564L271.49 115.324L266.32 116.236L268.688 129.665L264.089 130.476L261.721 117.047L256.55 117.958ZM277.25 110.431L280.281 127.621L275.615 128.444L272.584 111.254L277.25 110.431ZM294.335 107.419L297.366 124.608L293.471 125.295L285.668 117.359L285.567 117.377L287.159 126.408L282.493 127.231L279.462 110.041L283.423 109.343L291.12 117.263L291.255 117.239L289.668 108.242L294.335 107.419ZM308.706 110.735C308.581 110.451 308.42 110.211 308.224 110.015C308.027 109.813 307.797 109.655 307.534 109.54C307.276 109.418 306.986 109.345 306.665 109.321C306.348 109.29 306.007 109.307 305.644 109.371C304.86 109.509 304.225 109.815 303.737 110.287C303.255 110.759 302.93 111.373 302.764 112.129C302.603 112.884 302.61 113.76 302.785 114.756C302.963 115.763 303.252 116.601 303.653 117.269C304.053 117.937 304.558 118.413 305.168 118.698C305.778 118.982 306.486 119.054 307.291 118.912C308.002 118.786 308.574 118.579 309.008 118.289C309.447 117.998 309.75 117.642 309.918 117.22C310.086 116.798 310.125 116.329 310.034 115.815L310.854 115.756L306.926 116.449L306.34 113.125L313.961 111.782L314.382 114.165C314.658 115.732 314.561 117.131 314.092 118.362C313.627 119.586 312.865 120.597 311.806 121.396C310.751 122.187 309.474 122.716 307.974 122.98C306.301 123.275 304.77 123.179 303.38 122.691C301.99 122.203 300.824 121.365 299.881 120.175C298.944 118.984 298.316 117.483 297.996 115.67C297.746 114.248 297.739 112.951 297.977 111.779C298.22 110.605 298.661 109.573 299.3 108.681C299.938 107.784 300.729 107.053 301.674 106.488C302.618 105.918 303.669 105.531 304.827 105.326C305.845 105.147 306.816 105.126 307.741 105.263C308.669 105.393 309.516 105.665 310.282 106.078C311.051 106.485 311.707 107.012 312.248 107.661C312.79 108.31 313.181 109.057 313.423 109.903L308.706 110.735Z" fill="black"/>
<rect x="24.4629" y="632" width="338.655" height="120.948" rx="20" transform="rotate(38 24.4629 632)" fill="#EBE7E3"/>
<path d="M44.4666 719.295L55.2127 705.541L61.1496 710.18C62.1705 710.977 62.9063 711.876 63.3571 712.878C63.8079 713.879 63.9609 714.91 63.816 715.972C63.6712 717.035 63.2175 718.054 62.4549 719.03C61.6853 720.015 60.7995 720.696 59.7976 721.074C58.8001 721.456 57.7552 721.534 56.6628 721.307C55.5749 721.085 54.5072 720.564 53.4595 719.746L49.9134 716.975L52.1802 714.074L54.974 716.257C55.4128 716.599 55.8461 716.815 56.274 716.905C56.7098 716.993 57.1225 716.958 57.5121 716.801C57.9061 716.647 58.2553 716.376 58.5596 715.986C58.8674 715.592 59.0447 715.19 59.0915 714.78C59.1462 714.368 59.0745 713.966 58.8766 713.573C58.6866 713.18 58.3722 712.812 57.9334 712.469L56.6171 711.44L48.2007 722.213L44.4666 719.295ZM56.8778 728.992L67.6239 715.238L73.5608 719.876C74.5816 720.674 75.3297 721.557 75.805 722.527C76.2803 723.497 76.4577 724.497 76.3374 725.528C76.217 726.559 75.7755 727.562 75.013 728.538C74.2434 729.523 73.3751 730.182 72.4081 730.516C71.4456 730.853 70.4357 730.885 69.3783 730.615C68.3254 730.347 67.2751 729.804 66.2274 728.986L62.6814 726.215L64.9481 723.314L67.742 725.497C68.1808 725.839 68.5966 726.078 68.9895 726.212C69.3904 726.345 69.7681 726.355 70.1226 726.243C70.4817 726.134 70.8134 725.885 71.1177 725.495C71.4255 725.101 71.5906 724.714 71.6128 724.335C71.643 723.955 71.5469 723.584 71.3245 723.223C71.11 722.861 70.7833 722.508 70.3446 722.165L69.0282 721.137L60.6119 731.909L56.8778 728.992ZM69.8693 728.976L68.3756 737.975L64.3191 734.806L65.8934 725.869L69.8693 728.976ZM73.0835 741.653L69.0539 738.505L84.34 728.298L89.4441 732.286L83.2381 749.587L79.2085 746.439L83.9864 734.122L83.879 734.038L73.0835 741.653ZM76.571 735.639L84.1466 741.558L81.9638 744.352L74.3882 738.433L76.571 735.639ZM103.474 751.553L99.6859 748.594C99.9039 748.259 100.054 747.919 100.137 747.573C100.225 747.23 100.239 746.888 100.181 746.547C100.131 746.205 100.004 745.875 99.7986 745.556C99.597 745.233 99.3171 744.931 98.9589 744.651C98.3321 744.162 97.6826 743.899 97.0104 743.864C96.3427 743.833 95.6748 744.014 95.0067 744.408C94.3431 744.805 93.6999 745.402 93.0773 746.199C92.4196 747.041 91.9806 747.834 91.7602 748.577C91.5478 749.32 91.5446 750.002 91.7505 750.624C91.96 751.242 92.3669 751.787 92.9713 752.26C93.3161 752.529 93.6583 752.728 93.9978 752.856C94.3409 752.98 94.6779 753.038 95.0088 753.03C95.3397 753.021 95.6588 752.95 95.9661 752.815C96.2813 752.679 96.5768 752.481 96.8524 752.22L100.619 755.206C100.12 755.754 99.4928 756.219 98.7385 756.603C97.9877 756.983 97.1532 757.225 96.235 757.33C95.3249 757.433 94.3685 757.342 93.366 757.056C92.3635 756.771 91.3585 756.234 90.3511 755.447C89.0885 754.461 88.1674 753.305 87.5877 751.98C87.0126 750.658 86.845 749.243 87.085 747.736C87.3294 746.233 88.0464 744.72 89.2357 743.198C90.432 741.667 91.735 740.608 93.1445 740.022C94.5576 739.432 95.9755 739.26 97.3982 739.506C98.8244 739.748 100.155 740.351 101.391 741.317C102.26 741.995 102.966 742.738 103.511 743.546C104.055 744.353 104.424 745.201 104.618 746.088C104.815 746.97 104.823 747.874 104.641 748.799C104.459 749.724 104.07 750.642 103.474 751.553ZM106.471 750.434L108.821 747.425L120.776 756.765L118.425 759.773L114.288 756.541L105.893 767.287L102.212 764.411L110.608 753.666L106.471 750.434ZM125.915 760.78L115.169 774.534L111.435 771.617L122.181 757.863L125.915 760.78ZM136.496 777.353L132.708 774.394C132.926 774.059 133.077 773.719 133.16 773.373C133.247 773.03 133.262 772.688 133.204 772.347C133.154 772.005 133.026 771.675 132.821 771.356C132.62 771.033 132.34 770.731 131.981 770.451C131.355 769.962 130.705 769.699 130.033 769.664C129.365 769.633 128.697 769.814 128.029 770.208C127.366 770.605 126.722 771.202 126.1 771.999C125.442 772.841 125.003 773.634 124.783 774.377C124.57 775.12 124.567 775.802 124.773 776.424C124.983 777.042 125.389 777.587 125.994 778.06C126.339 778.329 126.681 778.528 127.02 778.656C127.363 778.78 127.7 778.838 128.031 778.83C128.362 778.821 128.681 778.75 128.989 778.615C129.304 778.479 129.599 778.281 129.875 778.02L133.642 781.007C133.142 781.554 132.515 782.019 131.761 782.403C131.01 782.783 130.176 783.025 129.258 783.13C128.347 783.233 127.391 783.142 126.389 782.856C125.386 782.571 124.381 782.034 123.374 781.247C122.111 780.261 121.19 779.105 120.61 777.78C120.035 776.458 119.868 775.043 120.108 773.536C120.352 772.033 121.069 770.52 122.258 768.998C123.455 767.467 124.758 766.408 126.167 765.822C127.58 765.232 128.998 765.06 130.421 765.306C131.847 765.548 133.178 766.151 134.414 767.117C135.282 767.795 135.989 768.538 136.533 769.346C137.078 770.153 137.447 771.001 137.641 771.888C137.838 772.77 137.846 773.674 137.664 774.599C137.482 775.524 137.093 776.442 136.496 777.353ZM134.622 789.733L130.593 786.584L145.879 776.377L150.983 780.365L144.777 797.666L140.747 794.518L145.525 782.201L145.418 782.117L134.622 789.733ZM138.11 783.718L145.685 789.637L143.503 792.431L135.927 786.512L138.11 783.718ZM146.102 798.701L156.848 784.947L160.582 787.864L152.186 798.61L157.747 802.955L155.396 805.963L146.102 798.701ZM164.441 813.03L175.187 799.276L184.858 806.831L182.508 809.84L176.571 805.202L174.724 807.566L180.07 811.742L177.719 814.751L172.373 810.574L168.175 815.947L164.441 813.03ZM189.966 810.822L179.22 824.576L175.486 821.659L186.232 807.904L189.966 810.822ZM180.989 825.959L191.736 812.204L195.47 815.122L187.074 825.867L192.635 830.212L190.284 833.221L180.989 825.959ZM191.794 834.4L202.54 820.646L212.453 828.39L210.102 831.399L203.923 826.572L202.076 828.936L207.745 833.364L205.394 836.373L199.726 831.945L197.879 834.309L204.03 839.115L201.68 842.124L191.794 834.4ZM60.153 764.545L54.8608 760.411L65.6069 746.656L70.8454 750.749C72.2602 751.855 73.2674 753.085 73.8669 754.44C74.4744 755.794 74.6558 757.205 74.4109 758.672C74.1739 760.138 73.4958 761.588 72.3764 763.02C71.257 764.453 70.0152 765.466 68.651 766.058C67.2903 766.646 65.8821 766.815 64.4266 766.565C62.9745 766.31 61.55 765.637 60.153 764.545ZM61.0716 760.158L62.4954 761.271C63.1759 761.802 63.8414 762.146 64.4919 762.301C65.1469 762.459 65.8096 762.367 66.4801 762.026C67.1551 761.688 67.8669 761.04 68.6155 760.082C69.364 759.124 69.8184 758.275 69.9785 757.535C70.143 756.798 70.0625 756.126 69.7369 755.518C69.4158 754.914 68.8971 754.332 68.1807 753.772L66.8644 752.744L61.0716 760.158ZM83.2112 760.41L72.4652 774.165L68.7311 771.247L79.4771 757.493L83.2112 760.41ZM77.8077 778.339L73.7781 775.191L89.0642 764.983L94.1684 768.971L87.9623 786.272L83.9327 783.124L88.7107 770.807L88.6032 770.723L77.8077 778.339ZM81.2952 772.325L88.8709 778.243L86.6881 781.037L79.1124 775.118L81.2952 772.325ZM104.772 784.567C104.899 784.284 104.97 784.004 104.985 783.727C105.003 783.446 104.967 783.169 104.877 782.896C104.794 782.623 104.655 782.359 104.457 782.104C104.268 781.848 104.028 781.606 103.737 781.379C103.11 780.889 102.458 780.621 101.78 780.575C101.107 780.532 100.434 780.701 99.7601 781.084C99.091 781.469 98.4452 782.061 97.8225 782.858C97.1928 783.664 96.7638 784.439 96.5355 785.183C96.3071 785.928 96.2911 786.622 96.4876 787.266C96.684 787.91 97.1046 788.483 97.7493 788.987C98.3179 789.431 98.855 789.718 99.3605 789.846C99.8705 789.977 100.339 789.964 100.764 789.807C101.19 789.649 101.564 789.365 101.886 788.953L102.478 789.524L99.3352 787.068L101.413 784.408L107.511 789.173L106.021 791.08C105.042 792.334 103.937 793.198 102.708 793.673C101.487 794.146 100.226 794.257 98.9239 794.004C97.6298 793.75 96.3828 793.154 95.1829 792.217C93.8441 791.171 92.891 789.968 92.3233 788.609C91.7557 787.25 91.5986 785.822 91.852 784.326C92.11 782.833 92.8056 781.361 93.939 779.91C94.8275 778.773 95.7869 777.9 96.8173 777.292C97.8522 776.687 98.9146 776.324 100.005 776.202C101.098 776.076 102.171 776.175 103.223 776.499C104.278 776.819 105.269 777.341 106.196 778.065C107.011 778.702 107.677 779.409 108.193 780.188C108.718 780.965 109.082 781.777 109.287 782.622C109.5 783.466 109.547 784.306 109.427 785.143C109.307 785.979 109.013 786.77 108.546 787.516L104.772 784.567ZM103.25 798.216L113.996 784.462L119.933 789.1C120.953 789.898 121.702 790.782 122.177 791.751C122.652 792.721 122.83 793.721 122.709 794.752C122.589 795.783 122.147 796.786 121.385 797.762C120.615 798.747 119.747 799.407 118.78 799.74C117.817 800.077 116.808 800.11 115.75 799.839C114.697 799.571 113.647 799.028 112.599 798.21L109.053 795.439L111.32 792.538L114.114 794.721C114.553 795.064 114.968 795.302 115.361 795.436C115.762 795.569 116.14 795.579 116.494 795.467C116.854 795.358 117.185 795.109 117.49 794.719C117.797 794.325 117.962 793.939 117.985 793.559C118.015 793.179 117.919 792.808 117.696 792.447C117.482 792.085 117.155 791.732 116.716 791.39L115.4 790.361L106.984 801.134L103.25 798.216ZM116.241 798.2L114.747 807.199L110.691 804.03L112.265 795.093L116.241 798.2ZM119.455 810.878L115.426 807.729L130.712 797.522L135.816 801.51L129.61 818.811L125.58 815.663L130.358 803.346L130.251 803.262L119.455 810.878ZM122.943 804.863L130.518 810.782L128.336 813.576L120.76 807.657L122.943 804.863ZM141.681 806.092L146.328 809.723L143.438 820.011L143.6 820.137L152.883 814.844L157.53 818.475L146.784 832.229L143.131 829.375L149.343 821.423L149.236 821.339L140.045 826.791L137.842 825.07L140.95 814.779L140.843 814.695L134.588 822.701L130.935 819.846L141.681 806.092ZM163.356 829.949C163.67 829.473 163.775 828.993 163.671 828.507C163.572 828.026 163.22 827.549 162.615 827.077C162.23 826.776 161.878 826.576 161.558 826.478C161.246 826.378 160.971 826.362 160.732 826.427C160.493 826.493 160.293 826.625 160.131 826.823C159.993 826.982 159.905 827.154 159.867 827.341C159.837 827.527 159.856 827.733 159.925 827.96C159.996 828.181 160.118 828.428 160.288 828.698C160.459 828.969 160.682 829.265 160.956 829.588L161.896 830.711C162.531 831.467 163.016 832.188 163.352 832.876C163.687 833.563 163.887 834.221 163.952 834.848C164.02 835.471 163.962 836.067 163.777 836.637C163.596 837.209 163.304 837.759 162.899 838.287C162.188 839.188 161.363 839.777 160.426 840.054C159.488 840.331 158.476 840.307 157.388 839.983C156.304 839.663 155.18 839.048 154.016 838.139C152.82 837.205 151.915 836.213 151.301 835.163C150.691 834.117 150.426 833.034 150.507 831.915C150.596 830.795 151.088 829.658 151.983 828.504L155.529 831.274C155.222 831.712 155.051 832.148 155.015 832.582C154.98 833.015 155.074 833.439 155.299 833.852C155.528 834.27 155.88 834.663 156.355 835.034C156.753 835.346 157.125 835.557 157.471 835.668C157.817 835.78 158.127 835.802 158.402 835.736C158.677 835.67 158.905 835.527 159.084 835.306C159.244 835.092 159.318 834.855 159.306 834.593C159.302 834.33 159.199 834.019 158.997 833.659C158.799 833.295 158.488 832.858 158.065 832.347L156.926 830.981C155.914 829.765 155.298 828.574 155.078 827.407C154.866 826.239 155.182 825.119 156.026 824.048C156.704 823.172 157.533 822.59 158.514 822.304C159.503 822.017 160.559 822.016 161.683 822.303C162.812 822.594 163.92 823.164 165.008 824.014C166.118 824.882 166.934 825.818 167.454 826.823C167.974 827.827 168.189 828.839 168.1 829.858C168.018 830.876 167.628 831.837 166.929 832.74L163.356 829.949Z" fill="black"/>
<rect x="293.207" y="687" width="338.655" height="120.948" rx="20" transform="rotate(13 293.207 687)" fill="#EBE7E3"/>
<path d="M383.849 754.69L379.165 753.609C379.221 753.214 379.214 752.842 379.143 752.493C379.077 752.145 378.946 751.829 378.749 751.545C378.559 751.256 378.304 751.01 377.983 750.808C377.664 750.6 377.283 750.445 376.84 750.343C376.065 750.164 375.365 750.201 374.741 750.453C374.123 750.707 373.594 751.153 373.155 751.793C372.722 752.433 372.391 753.246 372.164 754.232C371.923 755.272 371.86 756.176 371.975 756.943C372.096 757.706 372.382 758.326 372.831 758.803C373.282 759.274 373.881 759.596 374.629 759.769C375.055 759.867 375.449 759.903 375.811 759.876C376.174 759.843 376.504 759.753 376.801 759.606C377.097 759.458 377.356 759.259 377.578 759.006C377.806 758.75 377.99 758.446 378.13 758.093L382.806 759.208C382.584 759.914 382.213 760.601 381.691 761.268C381.171 761.93 380.517 762.502 379.729 762.985C378.948 763.463 378.043 763.785 377.014 763.95C375.984 764.114 374.847 764.053 373.601 763.765C372.04 763.405 370.717 762.746 369.631 761.79C368.551 760.835 367.802 759.624 367.382 758.157C366.969 756.691 366.979 755.017 367.413 753.135C367.851 751.242 368.584 749.731 369.614 748.605C370.645 747.472 371.857 746.717 373.251 746.339C374.646 745.956 376.107 745.94 377.635 746.293C378.709 746.541 379.663 746.916 380.498 747.418C381.333 747.919 382.025 748.531 382.576 749.253C383.128 749.969 383.517 750.785 383.743 751.7C383.969 752.616 384.004 753.612 383.849 754.69ZM401.928 761.103C401.491 762.997 400.754 764.509 399.717 765.64C398.682 766.765 397.461 767.519 396.056 767.9C394.651 768.275 393.179 768.285 391.64 767.93C390.09 767.572 388.767 766.914 387.67 765.955C386.581 764.992 385.817 763.778 385.38 762.312C384.949 760.843 384.951 759.167 385.386 757.284C385.823 755.391 386.557 753.881 387.587 752.754C388.623 751.623 389.841 750.869 391.24 750.492C392.646 750.111 394.124 750.1 395.674 750.458C397.213 750.813 398.531 751.47 399.627 752.429C400.725 753.382 401.492 754.594 401.928 756.065C402.365 757.53 402.365 759.21 401.928 761.103ZM397.178 760.007C397.413 758.988 397.476 758.099 397.366 757.338C397.262 756.574 396.989 755.951 396.546 755.47C396.11 754.984 395.51 754.653 394.746 754.477C393.982 754.301 393.295 754.334 392.685 754.578C392.081 754.818 391.563 755.258 391.129 755.899C390.702 756.535 390.371 757.362 390.136 758.381C389.901 759.399 389.835 760.291 389.938 761.055C390.049 761.816 390.322 762.439 390.758 762.924C391.201 763.405 391.804 763.734 392.568 763.911C393.332 764.087 394.016 764.055 394.619 763.816C395.23 763.572 395.748 763.132 396.175 762.495C396.609 761.855 396.943 761.025 397.178 760.007ZM420.743 756.49L416.816 773.497L412.963 772.608L408.881 762.254L408.781 762.231L406.718 771.166L402.101 770.1L406.028 753.093L409.947 753.998L413.938 764.296L414.07 764.326L416.126 755.424L420.743 756.49ZM437.642 760.392L433.716 777.399L429.862 776.509L425.78 766.155L425.681 766.132L423.618 775.067L419 774.002L422.927 756.994L426.847 757.899L430.837 768.197L430.97 768.228L433.025 759.326L437.642 760.392ZM435.9 777.903L439.826 760.896L452.083 763.726L451.224 767.446L443.584 765.682L442.91 768.605L449.918 770.223L449.059 773.944L442.051 772.326L441.376 775.249L448.983 777.005L448.124 780.725L435.9 777.903ZM468.779 774.298L464.095 773.216C464.151 772.821 464.144 772.449 464.073 772.1C464.007 771.753 463.876 771.437 463.679 771.152C463.489 770.864 463.234 770.618 462.913 770.416C462.594 770.208 462.213 770.053 461.77 769.951C460.995 769.772 460.295 769.808 459.671 770.061C459.053 770.315 458.524 770.761 458.085 771.4C457.652 772.041 457.321 772.854 457.094 773.839C456.853 774.88 456.79 775.784 456.905 776.551C457.026 777.314 457.312 777.934 457.761 778.411C458.212 778.882 458.811 779.204 459.559 779.377C459.985 779.475 460.379 779.511 460.741 779.483C461.105 779.451 461.434 779.361 461.731 779.213C462.027 779.066 462.286 778.866 462.508 778.614C462.736 778.358 462.92 778.053 463.06 777.701L467.736 778.815C467.514 779.522 467.143 780.209 466.621 780.876C466.101 781.537 465.447 782.109 464.659 782.592C463.878 783.071 462.973 783.392 461.944 783.557C460.914 783.722 459.777 783.66 458.531 783.373C456.97 783.012 455.647 782.354 454.561 781.398C453.481 780.443 452.732 779.232 452.312 777.765C451.899 776.299 451.909 774.625 452.344 772.743C452.781 770.849 453.514 769.339 454.544 768.212C455.575 767.08 456.787 766.325 458.181 765.947C459.576 765.563 461.037 765.548 462.565 765.901C463.639 766.149 464.593 766.523 465.428 767.025C466.263 767.527 466.955 768.139 467.506 768.861C468.058 769.577 468.447 770.393 468.673 771.308C468.899 772.223 468.934 773.22 468.779 774.298ZM471.022 772.017L471.881 768.296L486.662 771.709L485.803 775.429L480.688 774.248L477.62 787.535L473.07 786.484L476.137 773.198L471.022 772.017ZM496.393 777.874L497.252 774.154L512.034 777.566L511.175 781.287L506.06 780.106L502.992 793.393L498.441 792.342L501.509 779.055L496.393 777.874ZM527.485 790.09C527.048 791.984 526.311 793.496 525.274 794.627C524.239 795.752 523.018 796.506 521.612 796.887C520.208 797.262 518.736 797.272 517.197 796.917C515.647 796.559 514.323 795.901 513.227 794.942C512.137 793.979 511.374 792.765 510.937 791.299C510.506 789.83 510.508 788.154 510.943 786.271C511.38 784.378 512.113 782.868 513.143 781.741C514.18 780.61 515.398 779.856 516.797 779.479C518.203 779.098 519.681 779.087 521.231 779.445C522.77 779.8 524.088 780.457 525.184 781.416C526.282 782.369 527.049 783.581 527.485 785.052C527.922 786.518 527.922 788.197 527.485 790.09ZM522.735 788.994C522.97 787.975 523.032 787.086 522.922 786.325C522.819 785.561 522.546 784.938 522.103 784.457C521.667 783.971 521.067 783.64 520.303 783.464C519.539 783.288 518.852 783.321 518.241 783.565C517.638 783.805 517.119 784.245 516.686 784.886C516.259 785.522 515.928 786.349 515.693 787.368C515.458 788.387 515.392 789.278 515.495 790.043C515.605 790.803 515.879 791.426 516.315 791.911C516.757 792.392 517.361 792.721 518.125 792.898C518.889 793.074 519.573 793.042 520.176 792.803C520.786 792.559 521.305 792.119 521.732 791.482C522.165 790.842 522.5 790.012 522.735 788.994ZM340.358 764.616L346.105 765.942L347.833 776.488L348.033 776.534L354.21 767.814L359.956 769.14L356.03 786.147L351.512 785.105L353.782 775.272L353.649 775.242L347.623 784.067L344.899 783.438L343.367 772.798L343.234 772.767L340.949 782.666L336.432 781.623L340.358 764.616ZM376.657 781.953C376.22 783.846 375.483 785.358 374.446 786.489C373.411 787.615 372.19 788.368 370.784 788.749C369.38 789.125 367.908 789.135 366.369 788.779C364.819 788.421 363.495 787.763 362.399 786.804C361.309 785.841 360.546 784.627 360.108 783.162C359.678 781.692 359.68 780.016 360.115 778.134C360.552 776.24 361.285 774.73 362.315 773.604C363.352 772.473 364.57 771.719 365.969 771.342C367.374 770.961 368.852 770.949 370.403 771.307C371.942 771.662 373.259 772.319 374.356 773.278C375.454 774.231 376.221 775.444 376.657 776.915C377.094 778.38 377.094 780.059 376.657 781.953ZM371.907 780.856C372.142 779.837 372.204 778.948 372.094 778.188C371.991 777.423 371.718 776.801 371.275 776.319C370.839 775.834 370.239 775.503 369.475 775.326C368.711 775.15 368.024 775.184 367.413 775.428C366.81 775.668 366.291 776.108 365.858 776.748C365.431 777.384 365.1 778.212 364.865 779.23C364.629 780.249 364.564 781.141 364.667 781.905C364.777 782.665 365.05 783.288 365.486 783.774C365.929 784.255 366.533 784.584 367.297 784.76C368.061 784.936 368.744 784.905 369.348 784.665C369.958 784.421 370.477 783.981 370.904 783.345C371.337 782.704 371.672 781.875 371.907 780.856ZM376.83 790.95L380.756 773.942L388.097 775.637C389.359 775.929 390.411 776.413 391.252 777.091C392.092 777.769 392.676 778.601 393.002 779.586C393.329 780.571 393.353 781.667 393.074 782.874C392.793 784.092 392.285 785.056 391.549 785.767C390.819 786.479 389.918 786.936 388.845 787.137C387.778 787.34 386.596 787.291 385.301 786.992L380.916 785.98L381.744 782.393L385.199 783.19C385.741 783.315 386.219 783.356 386.632 783.311C387.051 783.262 387.398 783.112 387.672 782.86C387.951 782.61 388.146 782.244 388.258 781.762C388.37 781.275 388.356 780.855 388.216 780.502C388.083 780.144 387.839 779.849 387.485 779.616C387.137 779.378 386.692 779.196 386.15 779.071L384.522 778.695L381.447 792.016L376.83 790.95ZM388.597 785.444L391.047 794.232L386.031 793.074L383.681 784.309L388.597 785.444ZM392.45 794.556L396.377 777.549L408.634 780.378L407.775 784.099L400.135 782.335L399.46 785.258L406.469 786.876L405.61 790.596L398.601 788.978L397.926 791.901L405.533 793.658L404.674 797.378L392.45 794.556ZM428.182 790.49C428.266 789.926 428.158 789.446 427.858 789.05C427.564 788.656 427.044 788.372 426.296 788.2C425.82 788.09 425.417 788.058 425.085 788.104C424.761 788.146 424.504 788.247 424.315 788.407C424.127 788.568 424.001 788.772 423.938 789.02C423.88 789.222 423.873 789.416 423.917 789.601C423.969 789.782 424.073 789.961 424.231 790.137C424.39 790.308 424.604 790.48 424.873 790.653C425.142 790.826 425.469 791 425.854 791.177L427.18 791.798C428.075 792.214 428.82 792.663 429.415 793.145C430.009 793.626 430.468 794.137 430.792 794.678C431.118 795.214 431.317 795.779 431.39 796.373C431.468 796.969 431.435 797.591 431.291 798.24C431.027 799.357 430.529 800.239 429.797 800.886C429.064 801.533 428.136 801.94 427.013 802.107C425.896 802.274 424.617 802.192 423.178 801.86C421.7 801.519 420.46 801.002 419.459 800.31C418.464 799.62 417.767 798.75 417.368 797.702C416.975 796.649 416.94 795.411 417.263 793.987L421.648 794.999C421.555 795.526 421.585 795.993 421.735 796.401C421.886 796.809 422.151 797.153 422.529 797.433C422.913 797.714 423.399 797.922 423.986 798.058C424.478 798.171 424.905 798.206 425.265 798.161C425.625 798.116 425.916 798.005 426.138 797.829C426.359 797.652 426.505 797.426 426.574 797.151C426.629 796.889 426.595 796.643 426.474 796.41C426.359 796.174 426.135 795.936 425.799 795.695C425.466 795.449 424.999 795.184 424.4 794.899L422.79 794.143C421.36 793.469 420.298 792.649 419.605 791.685C418.919 790.716 418.732 789.567 419.045 788.24C419.288 787.159 419.794 786.282 420.562 785.608C421.337 784.929 422.294 784.483 423.434 784.268C424.58 784.054 425.825 784.103 427.171 784.413C428.544 784.73 429.678 785.234 430.574 785.925C431.47 786.616 432.093 787.442 432.442 788.403C432.799 789.36 432.851 790.395 432.6 791.509L428.182 790.49ZM434.492 790.267L435.351 786.547L450.132 789.959L449.273 793.679L444.158 792.498L441.09 805.785L436.54 804.735L439.607 791.448L434.492 790.267ZM461.935 792.684L466.552 793.75L464.037 804.645C463.738 805.941 463.169 806.99 462.33 807.794C461.498 808.593 460.472 809.123 459.252 809.383C458.032 809.638 456.695 809.598 455.239 809.262C453.771 808.923 452.546 808.372 451.562 807.608C450.579 806.839 449.889 805.913 449.492 804.83C449.101 803.742 449.056 802.551 449.355 801.256L451.87 790.36L456.487 791.426L454.064 801.923C453.942 802.449 453.95 802.946 454.087 803.415C454.225 803.878 454.472 804.274 454.828 804.601C455.189 804.929 455.633 805.154 456.159 805.276C456.69 805.398 457.188 805.391 457.651 805.253C458.114 805.115 458.51 804.868 458.837 804.512C459.165 804.15 459.39 803.707 459.511 803.181L461.935 792.684ZM471.364 812.774L464.82 811.264L468.746 794.257L475.224 795.752C476.973 796.156 478.406 796.845 479.522 797.82C480.645 798.791 481.406 799.993 481.804 801.426C482.208 802.855 482.206 804.455 481.797 806.226C481.388 807.998 480.691 809.441 479.705 810.554C478.72 811.662 477.515 812.41 476.09 812.799C474.667 813.181 473.091 813.173 471.364 812.774ZM470.342 808.41L472.103 808.816C472.944 809.011 473.692 809.041 474.347 808.906C475.008 808.773 475.57 808.41 476.033 807.817C476.502 807.226 476.873 806.338 477.147 805.153C477.42 803.968 477.473 803.006 477.306 802.268C477.143 801.531 476.786 800.956 476.235 800.542C475.688 800.131 474.972 799.822 474.086 799.618L472.459 799.242L470.342 808.41ZM481.97 815.223L485.897 798.216L498.154 801.046L497.295 804.766L489.655 803.002L488.98 805.925L495.989 807.544L495.13 811.264L488.121 809.646L487.447 812.569L495.053 814.325L494.194 818.045L481.97 815.223ZM515.159 804.972L511.233 821.979L507.379 821.089L503.297 810.735L503.198 810.712L501.135 819.648L496.517 818.582L500.444 801.574L504.364 802.479L508.354 812.777L508.487 812.808L510.542 803.906L515.159 804.972ZM516.019 809.089L516.878 805.369L531.66 808.781L530.801 812.502L525.685 811.321L522.618 824.607L518.067 823.557L521.135 810.27L516.019 809.089ZM541.338 816.614C541.422 816.05 541.314 815.57 541.015 815.174C540.721 814.78 540.2 814.497 539.453 814.324C538.977 814.214 538.573 814.182 538.242 814.228C537.917 814.27 537.66 814.371 537.472 814.531C537.283 814.692 537.157 814.896 537.094 815.144C537.036 815.346 537.029 815.54 537.074 815.725C537.125 815.906 537.23 816.085 537.387 816.261C537.546 816.432 537.76 816.604 538.029 816.777C538.298 816.95 538.625 817.124 539.01 817.301L540.337 817.922C541.232 818.338 541.976 818.787 542.571 819.269C543.165 819.75 543.625 820.261 543.949 820.803C544.274 821.338 544.473 821.903 544.546 822.497C544.624 823.093 544.591 823.715 544.447 824.364C544.184 825.481 543.685 826.363 542.953 827.01C542.22 827.658 541.293 828.064 540.169 828.231C539.052 828.399 537.774 828.316 536.334 827.984C534.856 827.643 533.617 827.126 532.616 826.435C531.621 825.744 530.923 824.875 530.524 823.826C530.131 822.773 530.097 821.535 530.42 820.111L534.804 821.123C534.712 821.65 534.741 822.117 534.892 822.525C535.042 822.933 535.307 823.277 535.686 823.557C536.07 823.838 536.555 824.046 537.142 824.182C537.635 824.296 538.061 824.33 538.421 824.285C538.782 824.24 539.073 824.129 539.294 823.953C539.516 823.776 539.661 823.551 539.73 823.275C539.785 823.014 539.752 822.767 539.63 822.535C539.516 822.298 539.291 822.06 538.956 821.819C538.622 821.573 538.155 821.308 537.556 821.024L535.946 820.267C534.516 819.593 533.454 818.773 532.762 817.809C532.076 816.84 531.889 815.692 532.201 814.364C532.445 813.283 532.951 812.406 533.718 811.732C534.493 811.054 535.451 810.607 536.591 810.392C537.736 810.178 538.982 810.227 540.327 810.537C541.7 810.854 542.834 811.358 543.73 812.049C544.626 812.74 545.249 813.566 545.599 814.527C545.955 815.484 546.008 816.52 545.756 817.634L541.338 816.614Z" fill="black"/>
<rect x="-8" y="413.498" width="338.656" height="120.948" rx="20" transform="rotate(-38 -8 413.498)" fill="#EBE7E3"/>
<path d="M104.412 398.608C104.026 398.188 103.585 397.97 103.089 397.954C102.598 397.934 102.05 398.16 101.446 398.632C101.061 398.933 100.782 399.227 100.609 399.513C100.437 399.791 100.354 400.055 100.36 400.302C100.366 400.55 100.446 400.776 100.599 400.981C100.719 401.154 100.865 401.281 101.038 401.363C101.211 401.437 101.415 401.468 101.651 401.457C101.884 401.441 102.152 401.382 102.456 401.282C102.76 401.182 103.101 401.037 103.481 400.849L104.798 400.21C105.685 399.776 106.503 399.48 107.251 399.321C107.999 399.162 108.685 399.126 109.31 399.215C109.931 399.3 110.495 399.5 111.003 399.818C111.515 400.132 111.978 400.549 112.391 401.069C113.094 401.977 113.466 402.919 113.508 403.896C113.55 404.873 113.282 405.85 112.704 406.827C112.131 407.801 111.263 408.743 110.099 409.652C108.903 410.586 107.722 411.224 106.555 411.567C105.392 411.906 104.277 411.9 103.211 411.551C102.146 411.194 101.162 410.441 100.258 409.294L103.804 406.524C104.155 406.927 104.537 407.198 104.949 407.338C105.361 407.478 105.795 407.488 106.25 407.37C106.71 407.249 107.178 407.003 107.652 406.632C108.051 406.32 108.346 406.011 108.538 405.702C108.729 405.394 108.826 405.098 108.829 404.815C108.831 404.532 108.747 404.277 108.577 404.049C108.408 403.842 108.195 403.713 107.938 403.661C107.682 403.602 107.356 403.626 106.958 403.735C106.556 403.84 106.057 404.035 105.459 404.322L103.858 405.097C102.434 405.785 101.129 406.094 99.943 406.025C98.7583 405.949 97.7484 405.371 96.9133 404.293C96.2267 403.424 95.8631 402.478 95.8225 401.457C95.7829 400.428 96.0383 399.403 96.5887 398.382C97.1436 397.357 97.9651 396.42 99.0531 395.57C100.163 394.702 101.269 394.138 102.37 393.876C103.47 393.615 104.504 393.65 105.471 393.984C106.439 394.309 107.277 394.92 107.985 395.816L104.412 398.608ZM109.969 387.344L120.715 401.098L116.981 404.016L106.235 390.261L109.969 387.344ZM127.777 395.581L122.485 399.716L111.739 385.961L116.977 381.869C118.392 380.763 119.83 380.084 121.29 379.83C122.751 379.568 124.163 379.733 125.527 380.326C126.893 380.91 128.135 381.919 129.254 383.352C130.374 384.785 131.056 386.234 131.301 387.701C131.542 389.164 131.365 390.571 130.77 391.923C130.172 393.27 129.174 394.49 127.777 395.581ZM123.742 393.628L125.166 392.516C125.847 391.984 126.341 391.422 126.648 390.828C126.961 390.231 127.032 389.566 126.863 388.832C126.699 388.096 126.242 387.248 125.493 386.29C124.745 385.332 124.031 384.686 123.351 384.351C122.676 384.013 122.005 383.929 121.336 384.098C120.672 384.263 119.982 384.626 119.266 385.185L117.949 386.214L123.742 393.628ZM136.355 388.879L125.609 375.125L135.522 367.38L137.872 370.389L131.694 375.216L133.541 377.58L139.209 373.152L141.56 376.16L135.891 380.589L137.738 382.953L143.89 378.147L146.241 381.155L136.355 388.879ZM148.643 357.128L159.389 370.883L155.655 373.8L144.909 360.046L148.643 357.128ZM162.314 346.448L173.06 360.202L169.943 362.637L159.328 359.293L159.247 359.356L164.893 366.583L161.159 369.5L150.413 355.746L153.583 353.269L164.097 356.649L164.204 356.565L158.58 349.365L162.314 346.448ZM180.951 340.193L177.163 343.153C176.891 342.86 176.597 342.632 176.282 342.468C175.97 342.3 175.642 342.203 175.297 342.177C174.953 342.143 174.602 342.187 174.243 342.308C173.88 342.426 173.52 342.624 173.162 342.904C172.535 343.394 172.123 343.961 171.927 344.605C171.735 345.245 171.749 345.937 171.969 346.68C172.194 347.42 172.618 348.189 173.241 348.986C173.898 349.828 174.561 350.445 175.229 350.839C175.899 351.225 176.56 351.393 177.214 351.344C177.864 351.29 178.491 351.027 179.096 350.555C179.44 350.285 179.716 350.001 179.923 349.703C180.126 349.4 180.263 349.087 180.336 348.764C180.408 348.441 180.415 348.114 180.359 347.783C180.303 347.444 180.182 347.11 179.996 346.779L183.805 343.847C184.215 344.464 184.515 345.185 184.705 346.01C184.892 346.83 184.925 347.698 184.804 348.614C184.685 349.523 184.365 350.429 183.845 351.332C183.326 352.236 182.562 353.081 181.555 353.868C180.292 354.855 178.948 355.469 177.521 355.711C176.1 355.949 174.687 355.769 173.283 355.172C171.883 354.571 170.589 353.509 169.399 351.987C168.203 350.456 167.491 348.936 167.263 347.426C167.032 345.912 167.208 344.495 167.792 343.174C168.371 341.849 169.279 340.703 170.515 339.738C171.383 339.059 172.275 338.553 173.19 338.22C174.106 337.888 175.017 337.734 175.924 337.761C176.828 337.783 177.707 337.994 178.561 338.394C179.414 338.794 180.211 339.394 180.951 340.193ZM197.313 330.179C198.509 331.71 199.22 333.234 199.447 334.752C199.67 336.265 199.487 337.687 198.899 339.02C198.307 340.348 197.388 341.498 196.143 342.47C194.89 343.45 193.545 344.064 192.11 344.313C190.676 344.553 189.252 344.383 187.838 343.8C186.425 343.21 185.124 342.153 183.934 340.631C182.738 339.1 182.026 337.579 181.799 336.07C181.572 334.553 181.752 333.132 182.34 331.807C182.929 330.475 183.85 329.319 185.104 328.34C186.348 327.367 187.688 326.757 189.123 326.508C190.555 326.255 191.98 326.421 193.397 327.008C194.811 327.591 196.116 328.648 197.313 330.179ZM193.471 333.18C192.827 332.356 192.176 331.748 191.515 331.355C190.856 330.955 190.2 330.775 189.548 330.816C188.896 330.849 188.261 331.108 187.643 331.59C187.025 332.073 186.619 332.628 186.425 333.256C186.231 333.876 186.247 334.556 186.472 335.296C186.697 336.028 187.132 336.806 187.776 337.63C188.42 338.454 189.071 339.066 189.73 339.467C190.39 339.859 191.046 340.039 191.698 340.006C192.351 339.964 192.986 339.702 193.604 339.22C194.222 338.737 194.627 338.186 194.821 337.566C195.015 336.938 195 336.258 194.774 335.526C194.549 334.786 194.115 334.004 193.471 333.18ZM193.667 321.952L198.315 318.321L207.598 323.614L207.759 323.488L204.87 313.2L209.517 309.569L220.263 323.323L216.61 326.177L210.397 318.226L210.29 318.31L213.356 328.547L211.153 330.268L201.92 324.762L201.812 324.846L208.067 332.852L204.413 335.706L193.667 321.952ZM222.033 321.94L211.287 308.186L221.199 300.441L223.55 303.45L217.371 308.277L219.218 310.641L224.887 306.213L227.237 309.222L221.569 313.65L223.416 316.014L229.568 311.208L231.919 314.217L222.033 321.94Z" fill="black"/>
<rect x="182.339" y="446.344" width="338.655" height="120.948" rx="20" transform="rotate(23 182.339 446.344)" fill="#EBE7E3"/>
<path d="M266.881 530.545C267.061 530.004 267.038 529.513 266.812 529.071C266.591 528.632 266.128 528.262 265.421 527.962C264.972 527.772 264.58 527.67 264.245 527.658C263.919 527.642 263.648 527.697 263.435 527.823C263.221 527.948 263.062 528.127 262.956 528.36C262.864 528.55 262.823 528.739 262.835 528.929C262.855 529.117 262.926 529.311 263.051 529.512C263.178 529.707 263.359 529.914 263.594 530.131C263.829 530.348 264.12 530.577 264.469 530.817L265.667 531.659C266.476 532.225 267.132 532.796 267.634 533.373C268.136 533.951 268.499 534.534 268.724 535.123C268.951 535.707 269.049 536.298 269.018 536.896C268.992 537.496 268.851 538.103 268.597 538.717C268.143 539.771 267.499 540.554 266.665 541.064C265.832 541.574 264.847 541.814 263.712 541.783C262.583 541.754 261.338 541.451 259.978 540.873C258.582 540.281 257.451 539.557 256.585 538.702C255.725 537.849 255.19 536.872 254.978 535.77C254.775 534.665 254.955 533.439 255.521 532.093L259.663 533.851C259.48 534.354 259.428 534.819 259.505 535.247C259.583 535.675 259.784 536.06 260.108 536.401C260.438 536.744 260.88 537.034 261.434 537.269C261.899 537.467 262.313 537.575 262.676 537.593C263.039 537.611 263.344 537.552 263.593 537.417C263.842 537.282 264.024 537.085 264.141 536.826C264.24 536.578 264.25 536.329 264.17 536.079C264.099 535.826 263.919 535.553 263.63 535.257C263.344 534.957 262.931 534.615 262.39 534.231L260.936 533.206C259.645 532.294 258.742 531.303 258.227 530.232C257.72 529.159 257.735 527.996 258.273 526.743C258.701 525.721 259.351 524.944 260.224 524.414C261.105 523.88 262.126 523.607 263.286 523.593C264.451 523.582 265.669 523.846 266.94 524.385C268.237 524.936 269.267 525.629 270.029 526.465C270.792 527.301 271.261 528.222 271.439 529.23C271.624 530.234 271.495 531.263 271.054 532.316L266.881 530.545ZM268.245 544.16L275.065 528.093L279.427 529.945L276.762 536.221L282.537 538.672L285.201 532.395L289.563 534.247L282.743 550.314L278.381 548.462L281.045 542.186L275.271 539.735L272.607 546.012L268.245 544.16ZM288.987 552.965L284.28 550.967L296.404 537.151L302.366 539.682L300.849 558L296.142 556.002L297.569 542.868L297.444 542.814L288.987 552.965ZM290.799 546.253L299.649 550.009L298.263 553.273L289.414 549.516L290.799 546.253ZM302.397 558.657L309.217 542.59L316.152 545.534C317.344 546.04 318.296 546.7 319.006 547.513C319.716 548.327 320.146 549.247 320.297 550.274C320.447 551.301 320.281 552.384 319.797 553.525C319.308 554.675 318.64 555.537 317.792 556.109C316.95 556.683 315.983 556.976 314.891 556.988C313.805 557.003 312.65 556.75 311.426 556.231L307.284 554.472L308.722 551.083L311.986 552.468C312.499 552.686 312.962 552.809 313.376 552.836C313.798 552.861 314.165 552.773 314.479 552.573C314.797 552.375 315.053 552.048 315.246 551.593C315.442 551.133 315.501 550.717 315.424 550.345C315.355 549.97 315.166 549.637 314.858 549.345C314.557 549.051 314.15 548.795 313.638 548.577L312.1 547.925L306.759 560.508L302.397 558.657ZM314.941 555.278L315.828 564.358L311.089 562.346L310.297 553.307L314.941 555.278ZM328.336 550.705L321.516 566.772L317.154 564.921L323.974 548.854L328.336 550.705ZM344.304 557.484L337.484 573.551L333.844 572.005L331.622 561.1L331.528 561.06L327.945 569.501L323.583 567.65L330.403 551.583L334.106 553.154L336.247 563.989L336.373 564.042L339.943 555.632L344.304 557.484ZM354.551 568.092C354.6 567.786 354.596 567.497 354.539 567.226C354.483 566.949 354.377 566.691 354.219 566.451C354.069 566.209 353.866 565.99 353.609 565.794C353.36 565.596 353.066 565.425 352.726 565.28C351.994 564.969 351.294 564.879 350.628 565.01C349.966 565.143 349.36 565.481 348.808 566.025C348.262 566.57 347.791 567.309 347.396 568.24C346.996 569.181 346.782 570.041 346.755 570.819C346.727 571.597 346.891 572.272 347.247 572.843C347.604 573.414 348.158 573.859 348.911 574.179C349.576 574.461 350.169 574.598 350.69 574.591C351.217 574.587 351.665 574.453 352.036 574.191C352.407 573.928 352.694 573.556 352.898 573.075L353.618 573.473L349.947 571.915L351.265 568.808L358.389 571.832L357.443 574.06C356.821 575.524 355.979 576.645 354.914 577.422C353.858 578.195 352.668 578.628 351.344 578.721C350.029 578.81 348.67 578.558 347.268 577.963C345.705 577.299 344.473 576.384 343.573 575.218C342.672 574.052 342.151 572.714 342.009 571.203C341.871 569.694 342.162 568.092 342.882 566.398C343.446 565.069 344.146 563.978 344.984 563.124C345.827 562.272 346.76 561.646 347.781 561.246C348.805 560.841 349.867 560.659 350.966 560.7C352.068 560.736 353.161 560.984 354.243 561.443C355.195 561.847 356.022 562.358 356.722 562.977C357.43 563.592 357.992 564.281 358.409 565.045C358.833 565.805 359.095 566.604 359.196 567.443C359.297 568.282 359.218 569.122 358.96 569.963L354.551 568.092ZM370.549 587.882C369.399 587.394 368.494 586.769 367.836 586.008C367.177 585.247 366.771 584.43 366.618 583.556C366.464 582.682 366.562 581.832 366.913 581.006C367.168 580.404 367.509 579.922 367.934 579.559C368.362 579.192 368.865 578.902 369.442 578.69C370.02 578.479 370.665 578.302 371.38 578.161L375.979 577.447C376.443 577.372 376.792 577.239 377.027 577.049C377.265 576.854 377.424 576.659 377.506 576.466C377.615 576.209 377.618 575.942 377.514 575.663C377.41 575.384 377.158 575.163 376.758 575C376.512 574.896 376.281 574.853 376.063 574.871C375.847 574.885 375.655 574.952 375.487 575.071C375.324 575.194 375.195 575.367 375.1 575.592C374.969 575.901 374.923 576.255 374.963 576.655C375.006 577.049 375.102 577.498 375.253 578C375.404 578.502 375.576 579.066 375.767 579.69L379.913 591.561L375.583 589.722L371.986 580.048C371.811 579.573 371.635 579.007 371.456 578.351C371.28 577.69 371.183 576.988 371.165 576.246C371.152 575.506 371.301 574.77 371.612 574.037C371.958 573.222 372.47 572.559 373.149 572.051C373.828 571.543 374.606 571.238 375.483 571.135C376.36 571.031 377.269 571.18 378.21 571.579C379.11 571.961 379.805 572.476 380.296 573.122C380.792 573.771 381.084 574.478 381.173 575.244C381.267 576.012 381.156 576.768 380.84 577.51C380.523 578.258 380.041 578.878 379.394 579.369C378.753 579.862 377.986 580.206 377.095 580.402L372.769 581.343C372.438 581.412 372.129 581.522 371.843 581.672C371.562 581.825 371.344 582.084 371.189 582.45C371.06 582.753 371.021 583.042 371.071 583.317C371.121 583.591 371.25 583.84 371.457 584.064C371.67 584.29 371.951 584.477 372.302 584.626C372.835 584.853 373.423 584.951 374.065 584.921C374.715 584.888 375.361 584.733 376.003 584.457C376.648 584.175 377.239 583.771 377.776 583.246C378.321 582.719 378.755 582.075 379.077 581.317L382.497 582.769C382.102 583.7 381.624 584.556 381.065 585.337C380.505 586.117 379.858 586.775 379.125 587.31C378.392 587.844 377.571 588.208 376.661 588.403C376.395 588.419 376.136 588.433 375.885 588.443C375.634 588.454 375.375 588.467 375.108 588.484C374.29 588.624 373.493 588.632 372.719 588.507C371.947 588.377 371.224 588.168 370.549 587.882ZM228.227 555.419L235.047 539.352L246.626 544.267L245.134 547.782L237.917 544.718L236.745 547.479L243.366 550.29L241.874 553.805L235.253 550.994L234.081 553.756L241.267 556.806L239.775 560.321L228.227 555.419ZM246.143 563.024L241.436 561.026L253.559 547.21L259.522 549.741L258.005 568.059L253.298 566.061L254.725 552.927L254.6 552.873L246.143 563.024ZM247.955 556.312L256.805 560.068L255.419 563.332L246.57 559.576L247.955 556.312ZM259.553 568.716L266.373 552.649L273.308 555.593C274.5 556.099 275.452 556.759 276.162 557.573C276.872 558.386 277.302 559.307 277.453 560.333C277.603 561.36 277.436 562.444 276.952 563.584C276.464 564.734 275.796 565.596 274.948 566.168C274.106 566.742 273.139 567.036 272.047 567.048C270.961 567.062 269.806 566.809 268.582 566.29L264.44 564.531L265.878 561.142L269.142 562.528C269.655 562.745 270.118 562.868 270.532 562.895C270.954 562.92 271.321 562.832 271.635 562.632C271.953 562.434 272.209 562.107 272.402 561.652C272.598 561.192 272.657 560.776 272.58 560.404C272.511 560.029 272.322 559.696 272.014 559.404C271.713 559.11 271.306 558.854 270.794 558.636L269.256 557.984L263.915 570.567L259.553 568.716ZM272.097 565.337L272.984 574.417L268.245 572.406L267.453 563.366L272.097 565.337ZM295.031 564.814L288.211 580.881L284.571 579.336L282.349 568.43L282.255 568.39L278.671 576.831L274.309 574.98L281.13 558.913L284.832 560.485L286.974 571.319L287.099 571.372L290.669 562.962L295.031 564.814ZM301.456 567.541L294.636 583.608L290.274 581.756L297.095 565.689L301.456 567.541ZM317.425 574.319L310.605 590.386L306.965 588.841L304.743 577.936L304.649 577.896L301.066 586.337L296.704 584.486L303.524 568.419L307.227 569.99L309.368 580.825L309.494 580.878L313.063 572.468L317.425 574.319ZM327.672 584.928C327.721 584.622 327.717 584.333 327.66 584.062C327.604 583.785 327.498 583.527 327.34 583.287C327.19 583.044 326.987 582.825 326.73 582.63C326.481 582.432 326.187 582.26 325.847 582.116C325.115 581.805 324.415 581.715 323.749 581.846C323.087 581.979 322.481 582.317 321.929 582.86C321.383 583.406 320.912 584.145 320.517 585.076C320.117 586.017 319.903 586.877 319.875 587.655C319.848 588.433 320.012 589.108 320.368 589.679C320.724 590.25 321.279 590.695 322.032 591.015C322.697 591.297 323.289 591.434 323.811 591.427C324.338 591.422 324.786 591.289 325.157 591.026C325.528 590.764 325.815 590.392 326.019 589.911L326.739 590.309L323.068 588.751L324.386 585.644L331.51 588.668L330.564 590.896C329.942 592.36 329.099 593.481 328.035 594.257C326.979 595.031 325.789 595.464 324.465 595.557C323.15 595.646 321.791 595.394 320.389 594.799C318.825 594.135 317.593 593.22 316.693 592.054C315.793 590.888 315.272 589.55 315.13 588.039C314.992 586.53 315.283 584.928 316.003 583.233C316.566 581.905 317.267 580.814 318.105 579.96C318.948 579.108 319.881 578.482 320.902 578.082C321.926 577.677 322.987 577.495 324.087 577.536C325.189 577.572 326.282 577.819 327.364 578.279C328.316 578.683 329.142 579.194 329.843 579.813C330.551 580.428 331.113 581.117 331.53 581.88C331.954 582.641 332.216 583.44 332.317 584.279C332.418 585.118 332.339 585.958 332.081 586.799L327.672 584.928ZM338.536 602.242L345.356 586.175L349.718 588.027L347.054 594.303L352.828 596.754L355.492 590.478L359.854 592.329L353.034 608.396L348.672 606.545L351.336 600.269L345.562 597.818L342.898 604.094L338.536 602.242ZM371.434 597.245L375.796 599.096L371.427 609.389C370.907 610.613 370.165 611.548 369.199 612.193C368.241 612.836 367.139 613.18 365.891 613.224C364.646 613.264 363.336 612.992 361.961 612.408C360.575 611.819 359.463 611.064 358.627 610.141C357.792 609.213 357.274 608.181 357.071 607.045C356.875 605.907 357.037 604.725 357.556 603.501L361.925 593.209L366.287 595.06L362.078 604.976C361.867 605.473 361.788 605.964 361.841 606.45C361.897 606.93 362.071 607.362 362.365 607.746C362.664 608.133 363.062 608.431 363.559 608.642C364.061 608.855 364.552 608.934 365.033 608.879C365.513 608.823 365.945 608.649 366.329 608.355C366.715 608.056 367.014 607.658 367.225 607.161L371.434 597.245ZM371.049 616.043L377.869 599.976L384.835 602.933C386.059 603.453 387.017 604.054 387.709 604.736C388.406 605.421 388.838 606.154 389.007 606.935C389.18 607.719 389.094 608.518 388.748 609.334C388.497 609.925 388.137 610.409 387.669 610.784C387.207 611.162 386.672 611.416 386.067 611.548C385.464 611.675 384.825 611.669 384.149 611.53L384.082 611.687C384.762 612.006 385.315 612.448 385.742 613.012C386.172 613.571 386.434 614.204 386.529 614.911C386.626 615.612 386.513 616.342 386.192 617.101C385.819 617.979 385.257 618.664 384.505 619.153C383.76 619.645 382.882 619.909 381.874 619.944C380.865 619.979 379.778 619.748 378.612 619.253L371.049 616.043ZM376.889 614.411L378.929 615.277C379.661 615.588 380.268 615.685 380.75 615.569C381.233 615.447 381.59 615.117 381.818 614.578C381.978 614.201 382.027 613.846 381.966 613.511C381.904 613.176 381.743 612.873 381.481 612.602C381.225 612.332 380.875 612.103 380.43 611.915L378.328 611.022L376.889 614.411ZM379.473 608.324L381.262 609.083C381.644 609.245 382.007 609.328 382.351 609.332C382.695 609.336 382.995 609.26 383.253 609.104C383.518 608.945 383.721 608.7 383.86 608.371C384.071 607.874 384.054 607.419 383.81 607.007C383.567 606.589 383.174 606.265 382.63 606.034L380.779 605.248L379.473 608.324Z" fill="black"/>
<rect x="420.821" y="319.016" width="338.655" height="120.948" rx="20" transform="rotate(-62 420.821 319.016)" fill="#EBE7E3"/>
<path d="M505.847 269.911L521.258 278.105L519.402 281.597L508.344 282.86L508.296 282.951L516.393 287.256L514.168 291.44L498.757 283.245L500.645 279.693L511.625 278.504L511.689 278.384L503.622 274.095L505.847 269.911ZM522.543 257.099C524.259 258.011 525.529 259.115 526.353 260.409C527.172 261.7 527.584 263.074 527.588 264.531C527.587 265.984 527.216 267.409 526.474 268.803C525.727 270.208 524.749 271.316 523.539 272.127C522.327 272.93 520.956 273.353 519.428 273.397C517.897 273.432 516.278 272.996 514.573 272.089C512.857 271.177 511.588 270.078 510.766 268.791C509.942 267.497 509.529 266.126 509.527 264.677C509.523 263.22 509.895 261.79 510.641 260.385C511.383 258.99 512.359 257.887 513.569 257.076C514.773 256.263 516.143 255.836 517.676 255.795C519.205 255.752 520.827 256.187 522.543 257.099ZM520.254 261.403C519.331 260.913 518.488 260.622 517.725 260.532C516.96 260.434 516.288 260.536 515.708 260.84C515.127 261.135 514.652 261.629 514.284 262.321C513.915 263.014 513.77 263.686 513.848 264.339C513.923 264.984 514.214 265.599 514.721 266.183C515.225 266.76 515.938 267.294 516.861 267.785C517.784 268.276 518.629 268.57 519.394 268.668C520.157 268.758 520.829 268.656 521.411 268.36C521.99 268.057 522.464 267.559 522.832 266.867C523.2 266.174 523.347 265.506 523.271 264.861C523.194 264.208 522.903 263.593 522.399 263.017C521.892 262.432 521.177 261.894 520.254 261.403ZM518.629 254.004L515.257 252.212L522.38 238.817L525.751 240.61L523.286 245.245L535.326 251.647L533.134 255.771L521.093 249.369L518.629 254.004ZM538.628 245.437L523.217 237.242L529.122 226.135L532.494 227.928L528.813 234.851L531.461 236.259L534.838 229.908L538.21 231.701L534.833 238.052L537.482 239.46L541.147 232.567L544.518 234.36L538.628 245.437ZM539.459 218.313C538.936 218.087 538.445 218.067 537.985 218.254C537.528 218.435 537.12 218.865 536.76 219.542C536.53 219.973 536.395 220.355 536.353 220.687C536.31 221.011 536.341 221.285 536.447 221.509C536.553 221.733 536.718 221.907 536.941 222.032C537.121 222.141 537.307 222.198 537.497 222.203C537.686 222.2 537.885 222.145 538.096 222.038C538.302 221.929 538.524 221.767 538.76 221.552C538.997 221.337 539.25 221.066 539.52 220.74L540.464 219.62C541.098 218.863 541.724 218.259 542.343 217.81C542.961 217.36 543.574 217.049 544.181 216.876C544.783 216.7 545.38 216.654 545.973 216.738C546.568 216.816 547.16 217.009 547.75 217.316C548.761 217.86 549.484 218.57 549.92 219.445C550.355 220.32 550.508 221.321 550.378 222.449C550.251 223.572 549.84 224.785 549.147 226.09C548.435 227.429 547.615 228.493 546.688 229.28C545.763 230.063 544.743 230.512 543.627 230.626C542.508 230.733 541.303 230.446 540.011 229.765L542.124 225.792C542.609 226.018 543.068 226.11 543.501 226.07C543.934 226.03 544.335 225.864 544.703 225.571C545.074 225.272 545.401 224.857 545.683 224.325C545.921 223.879 546.064 223.476 546.114 223.116C546.164 222.757 546.132 222.447 546.019 222.187C545.906 221.928 545.726 221.729 545.477 221.59C545.239 221.47 544.992 221.438 544.736 221.496C544.478 221.545 544.19 221.701 543.871 221.962C543.546 222.221 543.169 222.603 542.74 223.108L541.593 224.467C540.571 225.674 539.505 226.488 538.394 226.907C537.28 227.319 536.123 227.202 534.921 226.557C533.941 226.042 533.224 225.326 532.772 224.41C532.317 223.486 532.133 222.446 532.221 221.289C532.311 220.127 532.68 218.937 533.328 217.717C533.99 216.473 534.77 215.508 535.669 214.821C536.568 214.135 537.527 213.747 538.546 213.658C539.563 213.562 540.577 213.779 541.588 214.31L539.459 218.313ZM551.453 195.757C550.93 195.53 550.438 195.51 549.979 195.697C549.522 195.879 549.113 196.308 548.753 196.985C548.524 197.417 548.388 197.799 548.347 198.131C548.303 198.455 548.334 198.729 548.441 198.953C548.547 199.176 548.712 199.351 548.935 199.476C549.115 199.585 549.3 199.641 549.491 199.646C549.679 199.643 549.879 199.588 550.09 199.482C550.296 199.373 550.517 199.21 550.754 198.995C550.991 198.78 551.244 198.509 551.514 198.183L552.457 197.063C553.091 196.306 553.718 195.703 554.336 195.253C554.955 194.804 555.568 194.492 556.174 194.319C556.776 194.144 557.373 194.098 557.966 194.181C558.561 194.26 559.154 194.453 559.744 194.76C560.754 195.303 561.477 196.013 561.913 196.888C562.349 197.763 562.501 198.765 562.372 199.893C562.244 201.015 561.834 202.229 561.14 203.533C560.428 204.873 559.608 205.936 558.681 206.724C557.757 207.506 556.737 207.955 555.62 208.069C554.502 208.176 553.297 207.889 552.005 207.209L554.117 203.235C554.602 203.461 555.061 203.554 555.494 203.514C555.927 203.474 556.328 203.307 556.696 203.014C557.067 202.716 557.394 202.301 557.677 201.769C557.914 201.322 558.058 200.919 558.108 200.56C558.157 200.2 558.126 199.89 558.013 199.631C557.9 199.371 557.719 199.172 557.471 199.034C557.232 198.914 556.985 198.882 556.73 198.939C556.472 198.989 556.183 199.144 555.864 199.405C555.54 199.664 555.163 200.046 554.734 200.551L553.586 201.91C552.565 203.118 551.498 203.931 550.387 204.351C549.274 204.762 548.116 204.646 546.915 204C545.934 203.485 545.217 202.77 544.765 201.853C544.31 200.93 544.127 199.889 544.214 198.732C544.304 197.57 544.673 196.38 545.322 195.161C545.983 193.917 546.763 192.951 547.663 192.265C548.562 191.578 549.521 191.19 550.54 191.102C551.556 191.005 552.57 191.222 553.581 191.753L551.453 195.757ZM565.135 195.585L549.724 187.39L551.948 183.206L557.968 186.407L560.913 180.869L554.893 177.668L557.118 173.484L572.529 181.678L570.305 185.862L564.284 182.661L561.34 188.2L567.36 191.401L565.135 195.585ZM575.714 175.688L573.313 180.203L560.607 166.922L563.648 161.203L581.764 164.31L579.363 168.825L566.403 166.259L566.339 166.379L575.714 175.688ZM569.186 173.298L573.699 164.81L576.829 166.474L572.316 174.963L569.186 173.298ZM582.553 162.826L567.142 154.632L570.679 147.979C571.287 146.836 572.027 145.945 572.9 145.309C573.772 144.673 574.727 144.324 575.763 144.264C576.799 144.203 577.863 144.464 578.957 145.045C580.061 145.632 580.861 146.373 581.357 147.267C581.856 148.156 582.063 149.145 581.98 150.234C581.9 151.317 581.547 152.446 580.923 153.62L578.811 157.593L575.56 155.864L577.224 152.734C577.486 152.242 577.648 151.791 577.712 151.381C577.773 150.963 577.718 150.59 577.545 150.26C577.376 149.925 577.073 149.642 576.636 149.41C576.195 149.175 575.786 149.08 575.408 149.124C575.029 149.16 574.68 149.319 574.363 149.601C574.044 149.875 573.753 150.258 573.492 150.749L572.707 152.224L584.778 158.642L582.553 162.826ZM580.281 150.035L589.403 149.943L586.986 154.488L577.912 154.49L580.281 150.035ZM576.893 136.293L592.304 144.487L590.079 148.671L574.668 140.477L576.893 136.293ZM585.037 120.976L600.448 129.17L598.592 132.662L587.534 133.925L587.486 134.015L595.583 138.321L593.358 142.504L577.947 134.31L579.835 130.758L590.815 129.569L590.879 129.449L582.812 125.16L585.037 120.976ZM596.498 111.693C596.197 111.617 595.909 111.595 595.634 111.629C595.354 111.66 595.087 111.744 594.835 111.88C594.58 112.008 594.344 112.192 594.127 112.43C593.908 112.661 593.711 112.94 593.538 113.266C593.164 113.968 593.014 114.657 593.086 115.332C593.16 116.003 593.445 116.636 593.938 117.233C594.434 117.825 595.129 118.359 596.022 118.833C596.925 119.314 597.762 119.602 598.535 119.697C599.308 119.793 599.995 119.688 600.594 119.383C601.194 119.077 601.686 118.564 602.07 117.841C602.409 117.204 602.598 116.625 602.636 116.105C602.677 115.58 602.583 115.122 602.354 114.73C602.125 114.337 601.78 114.019 601.318 113.773L601.778 113.091L599.905 116.613L596.925 115.028L600.558 108.195L602.695 109.332C604.1 110.079 605.143 111.016 605.824 112.144C606.502 113.264 606.83 114.487 606.807 115.813C606.782 117.132 606.411 118.463 605.697 119.808C604.899 121.308 603.88 122.455 602.64 123.25C601.4 124.045 600.021 124.448 598.504 124.458C596.989 124.464 595.418 124.034 593.793 123.17C592.519 122.492 591.493 121.699 590.715 120.79C589.94 119.876 589.397 118.893 589.088 117.84C588.774 116.785 588.685 115.711 588.822 114.619C588.954 113.525 589.296 112.458 589.848 111.42C590.333 110.506 590.914 109.728 591.591 109.084C592.266 108.432 593.002 107.932 593.798 107.584C594.593 107.228 595.412 107.036 596.257 107.009C597.101 106.982 597.931 107.133 598.746 107.464L596.498 111.693Z" fill="black"/>
<path d="M630.721 516.79C614.476 555.061 541.605 541.374 459.365 506.465C377.125 471.556 315.773 430.732 332.904 390.374C350.035 350.015 422.02 365.789 504.26 400.698C586.5 435.607 646.966 478.519 630.721 516.79Z" fill="#EBE7E3"/>
<path d="M383.793 419.45L390.613 403.383L397.548 406.327C398.74 406.833 399.692 407.493 400.402 408.307C401.112 409.121 401.542 410.041 401.693 411.068C401.843 412.095 401.676 413.178 401.192 414.318C400.704 415.469 400.036 416.33 399.188 416.903C398.346 417.477 397.379 417.77 396.287 417.782C395.201 417.796 394.046 417.544 392.822 417.024L388.68 415.266L390.118 411.877L393.382 413.262C393.895 413.48 394.358 413.602 394.772 413.63C395.194 413.655 395.561 413.567 395.875 413.367C396.193 413.168 396.449 412.842 396.642 412.387C396.838 411.927 396.897 411.511 396.82 411.138C396.751 410.763 396.562 410.43 396.254 410.139C395.953 409.844 395.546 409.588 395.034 409.371L393.496 408.718L388.155 421.302L383.793 419.45ZM396.337 416.072L397.224 425.152L392.485 423.14L391.693 414.101L396.337 416.072ZM398.549 425.714L405.369 409.647L416.949 414.563L415.457 418.077L408.24 415.014L407.067 417.775L413.689 420.586L412.197 424.1L405.575 421.29L404.403 424.051L411.589 427.102L410.098 430.616L398.549 425.714ZM433.014 421.382L426.194 437.449L422.554 435.904L420.332 424.998L420.237 424.958L416.654 433.399L412.292 431.548L419.112 415.481L422.815 417.053L424.957 427.887L425.082 427.94L428.652 419.53L433.014 421.382ZM433.146 425.586L434.638 422.071L448.602 427.999L447.111 431.513L442.278 429.462L436.95 442.014L432.651 440.189L437.979 427.637L433.146 425.586ZM454.606 430.547L447.786 446.614L443.424 444.762L450.244 428.695L454.606 430.547ZM470.575 437.325L463.755 453.392L460.115 451.847L457.892 440.942L457.798 440.902L454.215 449.343L449.853 447.491L456.673 431.424L460.376 432.996L462.518 443.831L462.643 443.884L466.213 435.474L470.575 437.325ZM480.821 447.934C480.871 447.628 480.867 447.339 480.809 447.067C480.754 446.791 480.647 446.533 480.49 446.293C480.34 446.05 480.137 445.831 479.88 445.636C479.631 445.438 479.336 445.266 478.996 445.122C478.264 444.811 477.565 444.721 476.898 444.852C476.237 444.985 475.63 445.323 475.079 445.866C474.532 446.412 474.061 447.151 473.666 448.082C473.267 449.023 473.053 449.883 473.025 450.661C472.997 451.439 473.161 452.114 473.518 452.685C473.874 453.256 474.429 453.701 475.182 454.021C475.846 454.303 476.439 454.44 476.961 454.433C477.487 454.428 477.936 454.295 478.307 454.032C478.677 453.77 478.965 453.398 479.169 452.917L479.889 453.315L476.217 451.757L477.536 448.65L484.659 451.674L483.714 453.902C483.092 455.366 482.249 456.487 481.185 457.263C480.128 458.037 478.938 458.47 477.615 458.563C476.299 458.652 474.94 458.4 473.539 457.805C471.975 457.141 470.743 456.226 469.843 455.06C468.943 453.894 468.422 452.556 468.279 451.045C468.142 449.536 468.433 447.934 469.152 446.239C469.716 444.911 470.417 443.82 471.255 442.966C472.098 442.114 473.03 441.488 474.052 441.088C475.075 440.683 476.137 440.501 477.237 440.542C478.339 440.578 479.431 440.825 480.514 441.285C481.466 441.689 482.292 442.2 482.992 442.819C483.7 443.434 484.263 444.123 484.679 444.886C485.104 445.647 485.366 446.446 485.467 447.285C485.567 448.124 485.488 448.964 485.23 449.805L480.821 447.934ZM491.686 465.248L498.506 449.181L502.868 451.033L500.111 457.529L500.33 457.622L507.92 453.177L513.004 455.335L504.538 460.186L506.309 471.456L501.1 469.244L500.049 461.688L497.806 462.958L496.048 467.1L491.686 465.248ZM507.478 471.952L514.298 455.885L525.878 460.8L524.386 464.315L517.168 461.251L515.996 464.013L522.618 466.823L521.126 470.338L514.504 467.527L513.332 470.289L520.518 473.339L519.026 476.854L507.478 471.952ZM526.11 465.047L527.602 461.532L541.566 467.459L540.074 470.974L535.242 468.923L529.914 481.475L525.614 479.65L530.943 467.098L526.11 465.047ZM541.277 471.484L542.769 467.97L556.733 473.897L555.241 477.412L550.409 475.361L545.08 487.913L540.781 486.088L546.109 473.536L541.277 471.484ZM551.555 490.661L558.375 474.594L562.737 476.446L557.408 488.998L563.904 491.755L562.412 495.27L551.555 490.661ZM564.176 496.018L570.996 479.951L582.575 484.867L581.083 488.381L573.866 485.318L572.693 488.079L579.315 490.89L577.823 494.404L571.202 491.594L570.029 494.355L577.216 497.406L575.724 500.92L564.176 496.018Z" fill="black"/>
<circle cx="596.5" cy="375.5" r="42.5" fill="#BEBCF3"/>
<rect x="312.44" y="183.281" width="111.877" height="54.4268" rx="27.2134" transform="rotate(20 312.44 183.281)" fill="#BEBCF3"/>
<path fill-rule="evenodd" clip-rule="evenodd" d="M102.547 305.024C101.593 305.444 100.614 305.785 99.6086 306.047C98.5777 306.335 97.521 306.558 96.4386 306.715C95.3561 306.873 94.2479 306.964 93.1139 306.991C91.9799 307.017 90.8201 306.991 89.6346 306.912C88.449 306.807 87.2377 306.663 86.0006 306.479C84.7635 306.27 83.5135 306.021 82.2506 305.732C80.9878 305.444 79.712 305.103 78.4234 304.71C77.1348 304.343 75.8204 303.923 74.4802 303.451C73.1658 302.979 71.8513 302.468 70.5369 301.918C69.1967 301.393 67.8566 300.817 66.5164 300.187C65.1762 299.584 63.836 298.942 62.4958 298.26C61.1299 297.605 59.7768 296.91 58.4366 296.176C57.0964 295.468 55.7691 294.721 54.4547 293.935C53.1403 293.174 51.8259 292.388 50.5115 291.575C49.1971 290.788 47.8955 289.976 46.6069 289.137C45.344 288.298 44.0812 287.459 42.8183 286.62C41.5812 285.755 40.357 284.89 39.1457 284.024C37.9344 283.159 36.7359 282.281 35.5504 281.39C34.3906 280.498 33.2437 279.607 32.1097 278.715C31.0015 277.824 29.9062 276.92 28.8237 276.002C27.767 275.084 26.7232 274.167 25.6923 273.249C24.6872 272.305 23.7078 271.362 22.7542 270.418C21.8006 269.474 20.8728 268.53 19.9708 267.586C19.0687 266.616 18.2053 265.659 17.3806 264.716C16.5559 263.746 15.7698 262.762 15.0224 261.766C14.275 260.796 13.5533 259.813 12.8575 258.817C12.1874 257.82 11.5559 256.811 10.9632 255.789C10.3446 254.792 9.77763 253.783 9.26217 252.761C8.74672 251.738 8.28281 250.716 7.87044 249.693C7.43231 248.644 7.04571 247.609 6.71067 246.586C6.37562 245.538 6.09212 244.489 5.86017 243.44C5.62821 242.365 5.43492 241.304 5.28028 240.255C5.15142 239.18 5.06121 238.105 5.00966 237.03C4.98389 235.955 5.00966 234.867 5.08698 233.766C5.13853 232.691 5.25451 231.616 5.43492 230.542C5.58955 229.44 5.79573 228.352 6.05346 227.277C6.31119 226.203 6.62046 225.128 6.98128 224.053C7.31633 222.978 7.70292 221.916 8.14106 220.867C8.55342 219.819 9.01733 218.783 9.53279 217.761C10.0225 216.712 10.5637 215.69 11.1565 214.693C11.7235 213.697 12.3291 212.714 12.9735 211.744C13.6178 210.774 14.2879 209.817 14.9837 208.873C15.7054 207.955 16.4399 207.051 17.1873 206.16C17.9605 205.268 18.7594 204.416 19.5842 203.603C20.3831 202.764 21.2207 201.952 22.097 201.165C22.9475 200.379 23.8238 199.632 24.7258 198.924C25.6279 198.216 26.5557 197.534 27.5093 196.879C28.4371 196.25 29.3907 195.647 30.3701 195.07C31.3237 194.493 32.303 193.956 33.3082 193.457C34.3133 192.985 35.3184 192.54 36.3236 192.12C37.3545 191.727 38.3854 191.36 39.4163 191.019C40.473 190.705 41.5168 190.429 42.5477 190.193C43.6044 189.957 44.674 189.748 45.7564 189.564C46.8131 189.407 47.8827 189.276 48.9651 189.171C50.0476 189.092 51.13 189.04 52.2125 189.014C53.2949 188.987 54.3774 189 55.4599 189.053C56.5423 189.105 57.6248 189.197 58.7072 189.328C59.7897 189.433 60.8721 189.577 61.9546 189.761C63.0628 189.944 64.1582 190.154 65.2406 190.39C66.2973 190.626 67.3669 190.888 68.4493 191.177C69.5318 191.465 70.6014 191.78 71.658 192.12C72.7147 192.487 73.7714 192.868 74.8281 193.261C75.8848 193.654 76.9286 194.074 77.9595 194.519C78.9904 194.965 80.0084 195.437 81.0136 195.935C82.0445 196.433 83.0496 196.957 84.029 197.508C85.0083 198.032 85.9877 198.583 86.9671 199.16C87.9207 199.736 88.8743 200.326 89.8278 200.929C90.7557 201.558 91.6835 202.201 92.6113 202.856C93.5134 203.512 94.4025 204.18 95.2788 204.862C96.1551 205.57 97.0184 206.291 97.8689 207.025C98.6937 207.733 99.5184 208.48 100.343 209.266C101.142 210.027 101.928 210.826 102.701 211.665C103.475 212.478 104.222 213.304 104.944 214.143C105.665 215.008 106.374 215.886 107.07 216.778C107.766 217.695 108.436 218.613 109.08 219.53C109.724 220.474 110.343 221.444 110.936 222.44C111.529 223.437 112.108 224.446 112.675 225.469C113.217 226.491 113.745 227.54 114.26 228.615C114.75 229.689 115.227 230.791 115.691 231.918C116.129 233.045 116.554 234.199 116.967 235.379C117.353 236.532 117.714 237.725 118.049 238.957C118.384 240.163 118.706 241.395 119.016 242.654C119.299 243.938 119.544 245.236 119.75 246.547C119.982 247.858 120.175 249.182 120.33 250.519C120.51 251.882 120.652 253.259 120.755 254.648C120.858 256.038 120.923 257.427 120.948 258.817C121 260.206 121.013 261.609 120.987 263.025C120.961 264.44 120.897 265.843 120.794 267.232C120.717 268.648 120.601 270.038 120.446 271.401C120.291 272.79 120.098 274.167 119.866 275.53C119.634 276.893 119.376 278.23 119.093 279.541C118.809 280.852 118.487 282.137 118.126 283.395C117.766 284.654 117.366 285.886 116.928 287.092C116.49 288.272 116.026 289.425 115.536 290.553C115.046 291.68 114.505 292.755 113.912 293.777C113.345 294.8 112.74 295.783 112.096 296.727C111.451 297.67 110.768 298.549 110.047 299.361C109.325 300.174 108.565 300.934 107.766 301.642C106.967 302.324 106.142 302.953 105.292 303.53C104.415 304.081 103.5 304.579 102.547 305.024Z" fill="#BEBCF3" stroke="black"/>
<path d="M299.995 368.134L310.944 472.305L215.255 429.701L299.995 368.134Z" fill="#BEBCF3"/>
<path d="M554.5 566L579.25 572.498L597.368 590.25L604 614.5L597.368 638.75L579.25 656.502L554.5 663L529.75 656.502L511.632 638.75L505 614.5L511.632 590.25L529.75 572.498L554.5 566Z" fill="#BEBCF3"/>
<path d="M108.566 534.068L102.122 574.752L138.824 593.453L98.1399 599.896L91.6962 640.58L72.9959 603.879L32.312 610.322L61.4384 581.196L42.7381 544.494L79.4396 563.195L108.566 534.068Z" fill="#BEBCF3"/>
</g>
<defs>
<clipPath id="clip0_277_7873">
<rect width="678" height="928" rx="40" fill="white"/>
</clipPath>
</defs>
</svg>
