<svg width="324" height="39" viewBox="0 0 324 39" fill="none" xmlns="http://www.w3.org/2000/svg">
<path d="M13.8223 30.8232C5.27051 30.8232 0 25.0195 0 15.5244C0 6.09082 5.35254 0.246094 13.7197 0.246094C19.1953 0.246094 23.5225 2.80957 25.4707 7.13672C25.7988 7.81348 25.9629 8.51074 25.9629 9.12598C25.9629 10.541 25.04 11.4434 23.625 11.4434C22.415 11.4434 21.6152 10.8691 21.041 9.57715C19.667 6.39844 16.9805 4.7373 13.7607 4.7373C8.6748 4.7373 5.41406 8.9209 5.41406 15.5244C5.41406 22.1689 8.6543 26.332 13.7812 26.332C17.165 26.332 19.7695 24.8555 21.123 21.7383C21.6562 20.5283 22.333 20.0361 23.4814 20.0361C24.9375 20.0361 25.9424 21 25.9424 22.3945C25.9424 23.0713 25.7783 23.6865 25.4502 24.3838C23.5635 28.4033 19.3594 30.8232 13.8223 30.8232ZM39.6416 30.7617C33.2637 30.7617 29.1211 26.5166 29.1211 19.4619C29.1211 12.4482 33.3047 8.1416 39.6416 8.1416C45.9785 8.1416 50.1621 12.4277 50.1621 19.4619C50.1621 26.5166 46.0195 30.7617 39.6416 30.7617ZM39.6416 26.7217C42.8818 26.7217 44.9736 24.0967 44.9736 19.4619C44.9736 14.8477 42.8818 12.2021 39.6416 12.2021C36.4219 12.2021 34.3096 14.8477 34.3096 19.4619C34.3096 24.0967 36.4014 26.7217 39.6416 26.7217ZM55.9863 38.0625C54.4893 38.0625 53.4434 37.0986 53.4434 35.376V10.7871C53.4434 9.10547 54.4688 8.16211 55.9248 8.16211C57.3809 8.16211 58.4268 9.10547 58.4268 10.7871V12.3457H58.5293C59.7598 9.82324 62.2207 8.22363 65.3789 8.22363C70.8955 8.22363 74.4023 12.5098 74.4023 19.4619C74.4023 26.3936 70.916 30.6797 65.4609 30.6797C62.3027 30.6797 59.8418 29.1621 58.6523 26.7217H58.5498V35.376C58.5498 37.0986 57.4834 38.0625 55.9863 38.0625ZM63.8203 26.4961C67.1221 26.4961 69.1729 23.7686 69.1729 19.4619C69.1729 15.1758 67.1221 12.4277 63.8203 12.4277C60.6416 12.4277 58.5293 15.2373 58.5088 19.4619C58.5293 23.7275 60.6416 26.4961 63.8203 26.4961ZM80.2266 38.4111C77.9297 38.4111 76.6787 37.5498 76.6787 35.9912C76.6787 34.9453 77.417 34.2686 78.6064 34.2686C79.0371 34.2686 79.2422 34.2891 79.7139 34.2891C80.8623 34.2891 82.0518 33.6943 82.8105 31.7871L83.1797 30.7207L76.0635 11.9971C75.8789 11.4844 75.7764 10.9512 75.7764 10.541C75.7764 9.14648 76.9043 8.16211 78.4014 8.16211C79.6934 8.16211 80.4111 8.73633 80.8418 10.1719L86.0303 25.9834H86.1123L91.3008 10.1514C91.7314 8.75684 92.4697 8.16211 93.7617 8.16211C95.2178 8.16211 96.2432 9.12598 96.2432 10.4795C96.2432 10.8896 96.1406 11.4639 95.9561 11.9561L88.7988 31.1104C86.8301 36.5244 84.5742 38.4111 80.2266 38.4111ZM106.128 30.7412C104.405 30.7412 103.462 29.9414 102.929 28.1162L98.2119 11.874C98.0479 11.2383 97.9658 10.8076 97.9658 10.3564C97.9658 9.06445 98.9707 8.16211 100.427 8.16211C101.698 8.16211 102.498 8.90039 102.806 10.3154L106.415 25.2861H106.518L110.312 10.5C110.66 8.98242 111.665 8.16211 113.224 8.16211C114.762 8.16211 115.746 8.96191 116.095 10.5L119.909 25.2861H120.032L123.642 10.2949C123.949 8.87988 124.729 8.16211 125.979 8.16211C127.436 8.16211 128.42 9.04395 128.42 10.3359C128.42 10.7871 128.338 11.2178 128.153 11.833L123.457 28.1162C122.944 29.9004 121.939 30.7412 120.217 30.7412C118.392 30.7412 117.407 29.9619 116.936 28.0957L113.203 14.4375H113.101L109.368 28.1162C108.938 29.9004 107.892 30.7412 106.128 30.7412ZM133.834 30.7412C132.296 30.7412 131.291 29.7363 131.291 28.0547V10.7461C131.291 9.14648 132.275 8.16211 133.731 8.16211C135.146 8.16211 136.151 9.14648 136.151 10.7461V12.4072H136.254C136.849 9.86426 138.735 8.22363 140.909 8.22363C141.709 8.22363 142.324 8.42871 142.714 8.77734C143.186 9.16699 143.432 9.78223 143.432 10.623C143.432 11.4229 143.186 12.0176 142.673 12.4277C142.181 12.8584 141.422 13.084 140.417 13.1045C137.505 13.125 136.397 14.9502 136.397 17.5957V28.0547C136.397 29.7363 135.372 30.7412 133.834 30.7412ZM148.395 5.53711C146.815 5.53711 145.564 4.30664 145.564 2.76855C145.564 1.20996 146.815 0 148.395 0C149.994 0 151.245 1.20996 151.245 2.76855C151.245 4.30664 149.994 5.53711 148.395 5.53711ZM148.395 30.7412C146.836 30.7412 145.852 29.7158 145.852 28.0547V10.8486C145.852 9.20801 146.836 8.16211 148.395 8.16211C149.953 8.16211 150.958 9.20801 150.958 10.8691V28.0547C150.958 29.7158 149.953 30.7412 148.395 30.7412ZM156.659 24.958V12.5303H155.285C154.014 12.5303 153.234 11.7715 153.234 10.541C153.234 9.33105 154.014 8.59277 155.285 8.59277H156.659V5.70117C156.659 4.06055 157.644 3.03516 159.223 3.03516C160.781 3.03516 161.766 4.06055 161.766 5.70117V8.59277H164.124C165.396 8.59277 166.175 9.33105 166.175 10.541C166.175 11.7715 165.396 12.5303 164.124 12.5303H161.766V23.8506C161.766 25.4912 162.34 26.209 163.816 26.332L164.186 26.373C165.539 26.4961 166.236 27.0703 166.236 28.2598C166.236 29.7568 164.924 30.5566 162.586 30.5566H162.381C158.587 30.5566 156.659 28.6699 156.659 24.958ZM172.02 5.53711C170.44 5.53711 169.189 4.30664 169.189 2.76855C169.189 1.20996 170.44 0 172.02 0C173.619 0 174.87 1.20996 174.87 2.76855C174.87 4.30664 173.619 5.53711 172.02 5.53711ZM172.02 30.7412C170.461 30.7412 169.477 29.7158 169.477 28.0547V10.8486C169.477 9.20801 170.461 8.16211 172.02 8.16211C173.578 8.16211 174.583 9.20801 174.583 10.8691V28.0547C174.583 29.7158 173.578 30.7412 172.02 30.7412ZM181.412 30.7412C179.915 30.7412 178.869 29.7773 178.869 28.0547V10.7461C178.869 9.16699 179.792 8.16211 181.31 8.16211C182.807 8.16211 183.832 9.16699 183.832 10.7461V12.2637H183.935C185.104 9.67969 187.359 8.18262 190.702 8.18262C195.501 8.18262 198.229 11.2588 198.229 16.2832V28.0547C198.229 29.7773 197.183 30.7412 195.686 30.7412C194.188 30.7412 193.122 29.7773 193.122 28.0547V17.3086C193.122 14.2324 191.687 12.5098 188.774 12.5098C185.842 12.5098 183.976 14.6221 183.976 17.7393V28.0547C183.976 29.7773 182.909 30.7412 181.412 30.7412ZM211.702 38.5137C207.539 38.4932 204.34 36.8936 202.884 34.5557C202.576 34.043 202.453 33.5508 202.453 33.0176C202.453 31.8896 203.294 31.0488 204.586 31.0488C205.304 31.0488 205.816 31.2949 206.452 31.9102C208.154 33.6123 209.672 34.4326 211.743 34.4531C215.209 34.4941 217.28 32.5459 217.28 29.6543V26.1885H217.178C216.05 28.5264 213.486 30.1055 210.369 30.1055C204.914 30.1055 201.428 25.8809 201.428 19.1953C201.428 12.3867 204.873 8.22363 210.472 8.22363C213.568 8.22363 215.968 9.82324 217.219 12.2842H217.301V10.7666C217.301 9.08496 218.408 8.16211 219.864 8.16211C221.341 8.16211 222.407 9.08496 222.407 10.7666V29.6338C222.407 35.1094 218.408 38.5547 211.702 38.5137ZM211.928 26.127C215.188 26.127 217.321 23.4814 217.321 19.2363C217.321 15.0117 215.188 12.2637 211.928 12.2637C208.708 12.2637 206.657 14.9707 206.657 19.2363C206.657 23.543 208.708 26.127 211.928 26.127Z" fill="black"/>
<path d="M230.139 30.5566C228.478 30.5566 227.186 29.2646 227.186 27.6035C227.186 25.9629 228.478 24.6504 230.139 24.6504C231.779 24.6504 233.071 25.9629 233.071 27.6035C233.071 29.2646 231.779 30.5566 230.139 30.5566ZM242.3 30.7412C240.577 30.7412 239.634 29.9414 239.101 28.1162L234.384 11.874C234.22 11.2383 234.138 10.8076 234.138 10.3564C234.138 9.06445 235.143 8.16211 236.599 8.16211C237.87 8.16211 238.67 8.90039 238.978 10.3154L242.587 25.2861H242.689L246.483 10.5C246.832 8.98242 247.837 8.16211 249.396 8.16211C250.934 8.16211 251.918 8.96191 252.267 10.5L256.081 25.2861H256.204L259.813 10.2949C260.121 8.87988 260.9 8.16211 262.151 8.16211C263.607 8.16211 264.592 9.04395 264.592 10.3359C264.592 10.7871 264.51 11.2178 264.325 11.833L259.629 28.1162C259.116 29.9004 258.111 30.7412 256.389 30.7412C254.563 30.7412 253.579 29.9619 253.107 28.0957L249.375 14.4375H249.272L245.54 28.1162C245.109 29.9004 244.063 30.7412 242.3 30.7412ZM276.876 30.7617C270.498 30.7617 266.355 26.5166 266.355 19.4619C266.355 12.4482 270.539 8.1416 276.876 8.1416C283.213 8.1416 287.396 12.4277 287.396 19.4619C287.396 26.5166 283.254 30.7617 276.876 30.7617ZM276.876 26.7217C280.116 26.7217 282.208 24.0967 282.208 19.4619C282.208 14.8477 280.116 12.2021 276.876 12.2021C273.656 12.2021 271.544 14.8477 271.544 19.4619C271.544 24.0967 273.636 26.7217 276.876 26.7217ZM293.221 30.7412C291.683 30.7412 290.678 29.7363 290.678 28.0547V10.7461C290.678 9.14648 291.662 8.16211 293.118 8.16211C294.533 8.16211 295.538 9.14648 295.538 10.7461V12.4072H295.641C296.235 9.86426 298.122 8.22363 300.296 8.22363C301.096 8.22363 301.711 8.42871 302.101 8.77734C302.572 9.16699 302.818 9.78223 302.818 10.623C302.818 11.4229 302.572 12.0176 302.06 12.4277C301.567 12.8584 300.809 13.084 299.804 13.1045C296.892 13.125 295.784 14.9502 295.784 17.5957V28.0547C295.784 29.7363 294.759 30.7412 293.221 30.7412ZM307.822 30.7412C306.325 30.7412 305.259 29.7773 305.259 28.0547V3.01465C305.259 1.29199 306.325 0.328125 307.822 0.328125C309.319 0.328125 310.365 1.29199 310.365 3.01465V17.5752H310.427L318.958 9.14648C319.614 8.44922 320.168 8.16211 320.947 8.16211C322.219 8.16211 323.183 9.12598 323.183 10.3564C323.183 11.1152 322.957 11.5869 322.26 12.2432L316.066 18.1084L322.875 26.6191C323.408 27.3574 323.572 27.8086 323.572 28.4648C323.572 29.7979 322.567 30.7412 321.152 30.7412C320.147 30.7412 319.553 30.3926 318.814 29.3262L312.293 21.0615L310.365 22.8662V28.0547C310.365 29.7773 309.319 30.7412 307.822 30.7412Z" fill="#8B5CF6"/>
</svg>
