<svg width="315" height="38" viewBox="0 0 315 38" fill="none" xmlns="http://www.w3.org/2000/svg">
<path d="M13.7197 30.5771C10.9307 30.5771 8.50391 29.9551 6.43945 28.7109C4.38867 27.4668 2.80273 25.7031 1.68164 23.4199C0.560547 21.123 0 18.4092 0 15.2783V15.2578C0 12.127 0.560547 9.41992 1.68164 7.13672C2.80273 4.85352 4.38867 3.09668 6.43945 1.86621C8.49023 0.62207 10.917 0 13.7197 0C15.8936 0 17.8555 0.416992 19.6055 1.25098C21.3555 2.08496 22.7979 3.24023 23.9326 4.7168C25.0674 6.19336 25.7852 7.90918 26.0859 9.86426L26.1064 10.0693H21.5332L21.4102 9.65918C21.0957 8.49707 20.583 7.49902 19.8721 6.66504C19.1748 5.83105 18.3066 5.19531 17.2676 4.75781C16.2422 4.30664 15.0596 4.08105 13.7197 4.08105C11.8877 4.08105 10.2949 4.53906 8.94141 5.45508C7.60156 6.37109 6.5625 7.66309 5.82422 9.33105C5.08594 10.999 4.7168 12.9746 4.7168 15.2578V15.2783C4.7168 17.5479 5.08594 19.5303 5.82422 21.2256C6.5625 22.9072 7.6084 24.2061 8.96191 25.1221C10.3154 26.0381 11.9014 26.4961 13.7197 26.4961C15.0322 26.4961 16.2012 26.2773 17.2266 25.8398C18.2656 25.3887 19.1475 24.7324 19.8721 23.8711C20.5967 23.0098 21.1367 21.957 21.4922 20.7129L21.5537 20.5078H26.127L26.0859 20.7129C25.7852 22.6816 25.0674 24.4111 23.9326 25.9014C22.8115 27.3779 21.376 28.5264 19.626 29.3467C17.876 30.167 15.9072 30.5771 13.7197 30.5771ZM39.0674 30.5156C37.0029 30.5156 35.1982 30.0645 33.6533 29.1621C32.1221 28.2461 30.9326 26.9541 30.085 25.2861C29.2373 23.6045 28.8135 21.6084 28.8135 19.2979V19.2568C28.8135 16.96 29.2373 14.9775 30.085 13.3096C30.9463 11.6416 32.1426 10.3564 33.6738 9.4541C35.2188 8.55176 37.0098 8.10059 39.0469 8.10059C41.0977 8.10059 42.8887 8.55176 44.4199 9.4541C45.9648 10.3428 47.1611 11.6211 48.0088 13.2891C48.8701 14.957 49.3008 16.9463 49.3008 19.2568V19.2979C49.3008 21.6221 48.8701 23.6182 48.0088 25.2861C47.1611 26.9541 45.9717 28.2461 44.4404 29.1621C42.9092 30.0645 41.1182 30.5156 39.0674 30.5156ZM39.0879 26.7832C40.2363 26.7832 41.2344 26.4893 42.082 25.9014C42.9297 25.3135 43.5859 24.4658 44.0508 23.3584C44.5156 22.2373 44.748 20.8838 44.748 19.2979V19.2568C44.748 17.6846 44.5156 16.3447 44.0508 15.2373C43.5859 14.1162 42.9229 13.2686 42.0615 12.6943C41.2002 12.1064 40.1953 11.8125 39.0469 11.8125C37.9121 11.8125 36.9141 12.1064 36.0527 12.6943C35.2051 13.2822 34.542 14.1299 34.0635 15.2373C33.585 16.3447 33.3457 17.6846 33.3457 19.2568V19.2979C33.3457 20.8838 33.5781 22.2373 34.043 23.3584C34.5215 24.4658 35.1914 25.3135 36.0527 25.9014C36.9141 26.4893 37.9258 26.7832 39.0879 26.7832ZM52.7256 37.2627V8.51074H57.1963V12.2021H57.2988C57.7227 11.3545 58.2627 10.623 58.9189 10.0078C59.5889 9.39258 60.3545 8.9209 61.2158 8.59277C62.0771 8.26465 63.0205 8.10059 64.0459 8.10059C65.8779 8.10059 67.4707 8.55859 68.8242 9.47461C70.1777 10.377 71.2236 11.6689 71.9619 13.3506C72.7002 15.0186 73.0693 17.001 73.0693 19.2979V19.3184C73.0693 21.6152 72.6934 23.5977 71.9414 25.2656C71.2031 26.9336 70.1641 28.2256 68.8242 29.1416C67.4844 30.0576 65.9121 30.5156 64.1074 30.5156C63.0957 30.5156 62.1455 30.3516 61.2568 30.0234C60.3818 29.6953 59.6094 29.2305 58.9395 28.6289C58.2695 28.0137 57.7158 27.2891 57.2783 26.4551H57.1963V37.2627H52.7256ZM62.877 26.6807C64.0391 26.6807 65.0439 26.3867 65.8916 25.7988C66.7393 25.1973 67.3887 24.3428 67.8398 23.2354C68.291 22.1279 68.5166 20.8223 68.5166 19.3184V19.2979C68.5166 17.7666 68.291 16.4473 67.8398 15.3398C67.3887 14.2324 66.7393 13.3848 65.8916 12.7969C65.0439 12.209 64.0391 11.915 62.877 11.915C61.7559 11.915 60.7646 12.2227 59.9033 12.8379C59.042 13.4395 58.3652 14.2939 57.873 15.4014C57.3945 16.4951 57.1553 17.7939 57.1553 19.2979V19.3184C57.1553 20.8086 57.4014 22.1074 57.8936 23.2148C58.3857 24.3086 59.0557 25.1631 59.9033 25.7783C60.7646 26.3799 61.7559 26.6807 62.877 26.6807ZM78.2168 37.2832C77.793 37.2832 77.3691 37.2627 76.9453 37.2217C76.5215 37.1807 76.1729 37.1328 75.8994 37.0781V33.6123C76.0635 33.6396 76.2686 33.667 76.5146 33.6943C76.7744 33.7354 77.0547 33.7559 77.3555 33.7559C78.4082 33.7559 79.2422 33.5781 79.8574 33.2227C80.4863 32.8672 80.9785 32.1699 81.334 31.1309L81.7031 30.1055L73.8486 8.51074H78.668L84.3896 27.0293L83.6104 26.0654H84.6973L83.918 27.0293L89.6602 8.51074H94.3564L86.3174 31.0693C85.7842 32.5596 85.1553 33.7627 84.4307 34.6787C83.7197 35.5947 82.8584 36.2578 81.8467 36.668C80.8486 37.0781 79.6387 37.2832 78.2168 37.2832ZM101.268 30.085L95.3613 8.51074H99.8115L103.729 25.4912H103.831L108.302 8.51074H112.588L117.1 25.4912H117.202L121.119 8.51074H125.528L119.622 30.085H114.987L110.476 13.9248H110.373L105.882 30.085H101.268ZM128.235 30.085V8.51074H132.706V12.2021H132.788C133.13 10.9307 133.738 9.93262 134.613 9.20801C135.488 8.46973 136.541 8.10059 137.771 8.10059C138.1 8.10059 138.394 8.12109 138.653 8.16211C138.927 8.18945 139.146 8.22363 139.31 8.26465V12.3867C139.132 12.3184 138.865 12.2637 138.51 12.2227C138.154 12.168 137.758 12.1406 137.32 12.1406C136.377 12.1406 135.557 12.3457 134.859 12.7559C134.162 13.1523 133.629 13.7334 133.26 14.499C132.891 15.251 132.706 16.1602 132.706 17.2266V30.085H128.235ZM142.242 30.085V8.51074H146.713V30.085H142.242ZM144.478 5.18848C143.767 5.18848 143.158 4.94238 142.652 4.4502C142.146 3.94434 141.894 3.34277 141.894 2.64551C141.894 1.9209 142.146 1.3125 142.652 0.820312C143.158 0.328125 143.767 0.0820312 144.478 0.0820312C145.202 0.0820312 145.811 0.328125 146.303 0.820312C146.809 1.3125 147.062 1.9209 147.062 2.64551C147.062 3.34277 146.809 3.94434 146.303 4.4502C145.811 4.94238 145.202 5.18848 144.478 5.18848ZM158.854 30.5156C156.721 30.5156 155.128 30.0371 154.075 29.0801C153.036 28.1094 152.517 26.5439 152.517 24.3838V12.0381H149.42V8.51074H152.517V2.8916H157.069V8.51074H161.109V12.0381H157.069V24.1377C157.069 25.2314 157.309 25.9834 157.787 26.3936C158.266 26.79 158.977 26.9883 159.92 26.9883C160.152 26.9883 160.364 26.9814 160.556 26.9678C160.761 26.9404 160.945 26.9199 161.109 26.9062V30.3311C160.85 30.3721 160.521 30.4131 160.125 30.4541C159.729 30.4951 159.305 30.5156 158.854 30.5156ZM164.924 30.085V8.51074H169.395V30.085H164.924ZM167.159 5.18848C166.448 5.18848 165.84 4.94238 165.334 4.4502C164.828 3.94434 164.575 3.34277 164.575 2.64551C164.575 1.9209 164.828 1.3125 165.334 0.820312C165.84 0.328125 166.448 0.0820312 167.159 0.0820312C167.884 0.0820312 168.492 0.328125 168.984 0.820312C169.49 1.3125 169.743 1.9209 169.743 2.64551C169.743 3.34277 169.49 3.94434 168.984 4.4502C168.492 4.94238 167.884 5.18848 167.159 5.18848ZM173.927 30.085V8.51074H178.397V11.7715H178.479C179.054 10.6777 179.895 9.7959 181.002 9.12598C182.109 8.44238 183.477 8.10059 185.104 8.10059C187.469 8.10059 189.301 8.81836 190.6 10.2539C191.898 11.6758 192.548 13.6309 192.548 16.1191V30.085H188.098V16.9805C188.098 15.3535 187.715 14.1025 186.949 13.2275C186.197 12.3525 185.056 11.915 183.524 11.915C182.485 11.915 181.576 12.1475 180.797 12.6123C180.031 13.0771 179.437 13.7266 179.013 14.5605C178.603 15.3945 178.397 16.3789 178.397 17.5137V30.085H173.927ZM206.309 37.6934C204.463 37.6934 202.85 37.4336 201.469 36.9141C200.102 36.3945 199.001 35.6904 198.167 34.8018C197.333 33.9131 196.807 32.9219 196.588 31.8281L196.547 31.6436H200.977L201.038 31.8076C201.339 32.4912 201.94 33.0449 202.843 33.4688C203.759 33.9062 204.907 34.125 206.288 34.125C208.038 34.125 209.385 33.6807 210.328 32.792C211.271 31.917 211.743 30.7344 211.743 29.2441V26.2705H211.641C211.23 27.0498 210.69 27.7266 210.021 28.3008C209.364 28.875 208.599 29.3193 207.724 29.6338C206.849 29.9482 205.892 30.1055 204.853 30.1055C203.048 30.1055 201.469 29.6611 200.115 28.7725C198.762 27.8701 197.716 26.5986 196.978 24.958C196.239 23.3174 195.87 21.376 195.87 19.1338V19.1133C195.87 16.8574 196.246 14.9092 196.998 13.2686C197.75 11.6143 198.803 10.3428 200.156 9.4541C201.523 8.55176 203.116 8.10059 204.935 8.10059C205.96 8.10059 206.896 8.27148 207.744 8.61328C208.605 8.95508 209.364 9.43359 210.021 10.0488C210.677 10.6504 211.217 11.3613 211.641 12.1816H211.743V8.51074H216.193V29.4902C216.193 31.1309 215.79 32.5664 214.983 33.7969C214.19 35.0273 213.049 35.9844 211.559 36.668C210.082 37.3516 208.332 37.6934 206.309 37.6934ZM206.104 26.4961C207.238 26.4961 208.223 26.1953 209.057 25.5938C209.904 24.9922 210.561 24.1445 211.025 23.0508C211.504 21.957 211.743 20.6719 211.743 19.1953V19.1748C211.743 17.6982 211.504 16.4199 211.025 15.3398C210.561 14.2461 209.904 13.4053 209.057 12.8174C208.209 12.2158 207.225 11.915 206.104 11.915C204.941 11.915 203.93 12.209 203.068 12.7969C202.221 13.3848 201.564 14.2256 201.1 15.3193C200.635 16.3994 200.402 17.6777 200.402 19.1543V19.1748C200.402 20.6924 200.635 21.998 201.1 23.0918C201.564 24.1719 202.221 25.0127 203.068 25.6143C203.93 26.2021 204.941 26.4961 206.104 26.4961ZM223.104 30.3926C222.339 30.3926 221.696 30.1328 221.177 29.6133C220.657 29.0938 220.397 28.4512 220.397 27.6855C220.397 26.9336 220.657 26.2979 221.177 25.7783C221.696 25.2588 222.339 24.999 223.104 24.999C223.856 24.999 224.492 25.2588 225.012 25.7783C225.531 26.2979 225.791 26.9336 225.791 27.6855C225.791 28.4512 225.531 29.0938 225.012 29.6133C224.492 30.1328 223.856 30.3926 223.104 30.3926Z" fill="black"/>
<path d="M231.779 30.085L225.873 8.51074H230.323L234.24 25.4912H234.343L238.813 8.51074H243.1L247.611 25.4912H247.714L251.631 8.51074H256.04L250.134 30.085H245.499L240.987 13.9248H240.885L236.394 30.085H231.779ZM267.935 30.5156C265.87 30.5156 264.065 30.0645 262.521 29.1621C260.989 28.2461 259.8 26.9541 258.952 25.2861C258.104 23.6045 257.681 21.6084 257.681 19.2979V19.2568C257.681 16.96 258.104 14.9775 258.952 13.3096C259.813 11.6416 261.01 10.3564 262.541 9.4541C264.086 8.55176 265.877 8.10059 267.914 8.10059C269.965 8.10059 271.756 8.55176 273.287 9.4541C274.832 10.3428 276.028 11.6211 276.876 13.2891C277.737 14.957 278.168 16.9463 278.168 19.2568V19.2979C278.168 21.6221 277.737 23.6182 276.876 25.2861C276.028 26.9541 274.839 28.2461 273.308 29.1621C271.776 30.0645 269.985 30.5156 267.935 30.5156ZM267.955 26.7832C269.104 26.7832 270.102 26.4893 270.949 25.9014C271.797 25.3135 272.453 24.4658 272.918 23.3584C273.383 22.2373 273.615 20.8838 273.615 19.2979V19.2568C273.615 17.6846 273.383 16.3447 272.918 15.2373C272.453 14.1162 271.79 13.2686 270.929 12.6943C270.067 12.1064 269.062 11.8125 267.914 11.8125C266.779 11.8125 265.781 12.1064 264.92 12.6943C264.072 13.2822 263.409 14.1299 262.931 15.2373C262.452 16.3447 262.213 17.6846 262.213 19.2568V19.2979C262.213 20.8838 262.445 22.2373 262.91 23.3584C263.389 24.4658 264.059 25.3135 264.92 25.9014C265.781 26.4893 266.793 26.7832 267.955 26.7832ZM281.593 30.085V8.51074H286.063V12.2021H286.146C286.487 10.9307 287.096 9.93262 287.971 9.20801C288.846 8.46973 289.898 8.10059 291.129 8.10059C291.457 8.10059 291.751 8.12109 292.011 8.16211C292.284 8.18945 292.503 8.22363 292.667 8.26465V12.3867C292.489 12.3184 292.223 12.2637 291.867 12.2227C291.512 12.168 291.115 12.1406 290.678 12.1406C289.734 12.1406 288.914 12.3457 288.217 12.7559C287.52 13.1523 286.986 13.7334 286.617 14.499C286.248 15.251 286.063 16.1602 286.063 17.2266V30.085H281.593ZM295.682 30.085V0.492188H300.132V30.085H295.682ZM309.278 30.085L301.649 20.0771L304.541 16.8984L314.426 30.085H309.278ZM299.353 23.0918V17.6982H300.234L308.868 8.51074H314.098L303.987 19.1338H303.311L299.353 23.0918Z" fill="#EBE7E3"/>
</svg>
